<?xml version="1.0" encoding="utf-8"?>
<!-- Generator: Adobe Illustrator 16.0.0, SVG Export Plug-In . SVG Version: 6.00 Build 0)  -->
<!DOCTYPE svg PUBLIC "-//W3C//DTD SVG 1.1//EN" "http://www.w3.org/Graphics/SVG/1.1/DTD/svg11.dtd">
<svg version="1.1" id="Capa_1" xmlns="http://www.w3.org/2000/svg" xmlns:xlink="http://www.w3.org/1999/xlink" x="0px" y="0px"
	 width="173.991px" height="169.492px" viewBox="171.237 273.543 173.991 169.492"
	 enable-background="new 171.237 273.543 173.991 169.492" xml:space="preserve">
<g>
	<polygon fill="#000202" points="318.979,334.255 338.3,353.576 338.3,334.255 	"/>
	<path fill="#000202" d="M289.235,334.255h-25.201l31.975,31.975h-29.744l-31.975-31.975H207.51l31.975,31.975h-29.745
		l-27.615-27.615c-0.328,0.81-0.513,1.692-0.513,2.619v86.828c0,4.839,3.923,8.763,8.763,8.763h139.162
		c4.839,0,8.763-3.924,8.763-8.763v-61.832h-17.091L289.235,334.255z"/>
	<polygon fill="#000202" points="311.94,282.149 285.437,285.989 258.377,322.217 284.88,318.378 	"/>
	<polygon fill="#000202" points="256,290.253 231.059,293.867 203.999,330.096 228.941,326.482 	"/>
	<path fill="#000202" d="M336.47,303.852l-2.354-16.248l-19.8,26.509l16.248-2.354C334.378,311.207,337.023,307.667,336.47,303.852z
		"/>
	<path fill="#000202" d="M201.623,298.131l-16.899,2.448c-3.813,0.553-6.458,4.093-5.905,7.907l2.148,14.83l0.3,2.07l6.992-9.361
		L201.623,298.131z"/>
</g>
<g>
	<path fill="#CC473C" d="M257.446,381.163l6.59,11.507l6.59-11.507h10.688v35.596H270.67v-20.794l-6.85,10.5l-6.417-10.455v20.749
		h-10.666v-35.596H257.446z"/>
	<path fill="#CC473C" d="M294.366,394.271l5.16-13.108h10.839l-7.805,17.798l7.805,17.797h-10.839l-5.16-13.107v13.107H283.7
		v-35.596h10.666V394.271z"/>
</g>
<g>
	<path fill="#CC473C" d="M233.138,381.197l11.25,0.07l-0.223,35.579l-11.25-0.07l0.082-13.102l-5.524,13.068l-11.433-0.071
		l8.343-17.738l-8.121-17.841l11.433,0.072l5.36,13.135L233.138,381.197z"/>
</g>
<g>
	<path fill="#CC473C" d="M281.595,422.909v4.812h0.583c0.389,0,0.666,0.075,0.83,0.225c0.167,0.15,0.249,0.347,0.249,0.588
		c0,0.234-0.082,0.429-0.249,0.578c-0.164,0.149-0.44,0.224-0.83,0.224h-2.12c-0.388,0-0.665-0.074-0.83-0.224
		c-0.167-0.149-0.249-0.347-0.249-0.586c0-0.236,0.081-0.43,0.245-0.58c0.162-0.149,0.414-0.225,0.755-0.225v-6.317
		c-0.284-0.026-0.497-0.113-0.642-0.259c-0.144-0.147-0.216-0.331-0.216-0.552c0-0.241,0.082-0.437,0.247-0.587
		c0.166-0.149,0.442-0.225,0.832-0.225l1.772,0.008l2.198,4.86l2.158-4.868l1.788,0.008c0.39,0,0.666,0.074,0.83,0.221
		c0.167,0.147,0.249,0.342,0.249,0.583c0,0.221-0.073,0.404-0.22,0.552c-0.147,0.146-0.359,0.233-0.637,0.259v6.317
		c0.34,0,0.593,0.076,0.756,0.229c0.162,0.152,0.244,0.347,0.244,0.584c0,0.234-0.082,0.429-0.249,0.578
		c-0.165,0.149-0.441,0.224-0.83,0.224h-2.127c-0.383,0-0.658-0.074-0.823-0.224s-0.247-0.347-0.247-0.586
		c0-0.236,0.082-0.43,0.247-0.58c0.166-0.149,0.44-0.225,0.823-0.225h0.591v-4.812l-1.852,4.158h-1.402L281.595,422.909z"/>
	<path fill="#CC473C" d="M297.992,425.894c0,0.619-0.171,1.219-0.514,1.799c-0.346,0.58-0.857,1.041-1.537,1.387
		c-0.68,0.344-1.39,0.515-2.132,0.515c-0.734,0-1.438-0.168-2.11-0.507c-0.672-0.338-1.183-0.799-1.535-1.384
		c-0.352-0.582-0.528-1.19-0.528-1.826c0-0.645,0.179-1.28,0.536-1.902c0.356-0.622,0.869-1.112,1.54-1.469
		c0.669-0.358,1.369-0.536,2.098-0.536c0.737,0,1.444,0.184,2.124,0.548c0.68,0.365,1.192,0.856,1.54,1.474
		C297.821,424.609,297.992,425.242,297.992,425.894z M296.378,425.9c0-0.519-0.187-0.996-0.558-1.432
		c-0.51-0.589-1.179-0.882-2.01-0.882c-0.729,0-1.338,0.232-1.825,0.701c-0.49,0.466-0.734,1.007-0.734,1.622
		c0,0.503,0.247,0.975,0.742,1.413c0.493,0.438,1.098,0.657,1.817,0.657c0.725,0,1.333-0.219,1.828-0.657
		C296.131,426.884,296.378,426.412,296.378,425.9z"/>
	<path fill="#CC473C" d="M303.491,427.374l1.741-3.574c-0.431,0-0.707-0.038-0.828-0.111c-0.263-0.164-0.394-0.397-0.394-0.701
		c0-0.237,0.084-0.43,0.249-0.58c0.166-0.147,0.441-0.224,0.83-0.224h2.214c0.388,0,0.666,0.076,0.829,0.224
		c0.167,0.15,0.249,0.347,0.249,0.588c0,0.237-0.082,0.43-0.249,0.58c-0.163,0.148-0.441,0.225-0.829,0.225h-0.269l-2.701,5.535
		h-1.686l-2.701-5.535h-0.229c-0.388,0-0.666-0.076-0.831-0.225c-0.165-0.15-0.249-0.346-0.249-0.588c0-0.237,0.084-0.43,0.249-0.58
		c0.165-0.147,0.443-0.224,0.831-0.224h2.166c0.383,0,0.658,0.076,0.823,0.224c0.165,0.15,0.247,0.347,0.247,0.588
		c0,0.299-0.126,0.526-0.377,0.686c-0.127,0.078-0.407,0.119-0.844,0.119L303.491,427.374z"/>
	<path fill="#CC473C" d="M313.957,422.183v5.537h1.939c0.387,0,0.664,0.075,0.831,0.225c0.165,0.15,0.247,0.347,0.247,0.588
		c0,0.234-0.082,0.429-0.247,0.578c-0.167,0.149-0.444,0.224-0.831,0.224h-5.49c-0.389,0-0.665-0.074-0.83-0.224
		c-0.166-0.149-0.249-0.347-0.249-0.586c0-0.236,0.083-0.43,0.249-0.58c0.165-0.149,0.441-0.225,0.83-0.225h1.938v-3.921h-1.3
		c-0.385,0-0.659-0.076-0.827-0.225c-0.169-0.15-0.252-0.346-0.252-0.588c0-0.237,0.082-0.43,0.247-0.58
		c0.167-0.147,0.443-0.224,0.832-0.224H313.957z M313.737,419.12v1.709h-1.921v-1.709H313.737z"/>
	<path fill="#CC473C" d="M326.892,426.579h-6.626c0.169,0.42,0.466,0.758,0.896,1.015c0.426,0.258,1.006,0.387,1.735,0.387
		c0.6,0,1.395-0.129,2.387-0.387c0.409-0.104,0.693-0.156,0.851-0.156c0.216,0,0.396,0.076,0.545,0.229
		c0.146,0.152,0.22,0.344,0.22,0.575c0,0.21-0.078,0.387-0.236,0.534c-0.211,0.196-0.722,0.381-1.535,0.557
		c-0.814,0.175-1.598,0.263-2.349,0.263c-1.291,0-2.324-0.364-3.1-1.094c-0.773-0.729-1.16-1.628-1.16-2.694
		c0-1.134,0.418-2.058,1.256-2.768c0.838-0.711,1.803-1.068,2.895-1.068c0.655,0,1.258,0.116,1.809,0.347
		c0.546,0.231,0.956,0.481,1.225,0.748c0.376,0.388,0.689,0.87,0.936,1.441c0.169,0.398,0.254,0.862,0.254,1.388V426.579z
		 M325.103,424.964c-0.247-0.462-0.569-0.808-0.968-1.036c-0.399-0.228-0.876-0.342-1.426-0.342c-0.547,0-1.02,0.114-1.419,0.342
		c-0.397,0.229-0.726,0.574-0.977,1.036H325.103z"/>
	<path fill="#CC473C" d="M333.75,428.525c0,0.303-0.106,0.559-0.323,0.763c-0.215,0.205-0.511,0.307-0.889,0.307
		s-0.676-0.102-0.891-0.307c-0.216-0.204-0.323-0.46-0.323-0.763c0-0.305,0.107-0.56,0.323-0.765
		c0.215-0.205,0.513-0.308,0.891-0.308s0.674,0.103,0.889,0.308C333.644,427.965,333.75,428.22,333.75,428.525z"/>
</g>
</svg>
