<?xml version="1.0" encoding="utf-8"?>
<!-- Generator: Adobe Illustrator 16.0.0, SVG Export Plug-In . SVG Version: 6.00 Build 0)  -->
<!DOCTYPE svg PUBLIC "-//W3C//DTD SVG 1.1//EN" "http://www.w3.org/Graphics/SVG/1.1/DTD/svg11.dtd">
<svg version="1.1" id="Calque_1" xmlns="http://www.w3.org/2000/svg" xmlns:xlink="http://www.w3.org/1999/xlink" x="0px" y="0px"
	 width="559.176px" height="343.482px" viewBox="0 0 559.176 343.482" enable-background="new 0 0 559.176 343.482"
	 xml:space="preserve">
<g>
	<g>
		<path display="none" fill="#FFFFFF" d="M8.306,171.753c0-55,0-110,0-165c153.75,0,307.499,0,461.249,0
			c-1.971,0.192-3.938,0.511-5.91,0.562c-21.443,0.55-42.893,0.901-64.33,1.625c-14.986,0.506-29.381,4.035-42.938,10.447
			c-6.439,3.045-14.215,9.967-11.494,19.581c0.23,0.808,0.201,1.767,0.025,2.6c-2.477,11.728,4.002,19.234,12.387,25.568
			c3.043,2.299,4.545,4.846,4.383,8.484c-0.127,2.864-0.387,5.724-0.602,8.585c-1.098,14.559-2.203,29.115-3.293,43.675
			c-0.201,2.697-1.525,2.894-3.475,1.583c-1.369-0.921-2.656-1.962-4.072-3.02c-0.504,1.679-0.867,2.885-1.23,4.09
			c-0.438,0.104-0.875,0.21-1.313,0.314c2.02-7.087-2.33-10.718-6.875-14.467c-0.502,1.835-0.824,3.656-0.443,5.316
			c1.449,6.345,4.602,12.007,9.232,16.385c6.76,6.394,13.52,13.154,21.391,17.927c14.342,8.695,29.426,16.187,44.348,23.893
			c6.9,3.564,14.15,6.454,21.928,9.959c-1.33,0.682-1.982,1.214-2.713,1.36c-16.365,3.289-32.689,6.824-49.131,9.694
			c-11.777,2.056-23.701,3.337-35.586,4.734c-14.742,1.735-29.48,3.669-44.279,4.728c-17.787,1.271-35.628,2.09-53.458,2.425
			c-27.932,0.526-55.879,0.846-83.813,0.546c-17.062-0.184-34.11-1.682-51.162-2.645c-0.751-0.043-1.796-0.457-2.151-1.036
			c-2.431-3.964,0.049-9.896,4.617-11.151c3.483-0.958,6.965-1.968,10.504-2.664c13.187-2.596,25.23-7.863,35.921-15.91
			c3.276-2.467,5.774-6.073,8.226-9.451c0.645-0.889,0.309-3.303-0.486-4.268c-2.334-2.834-1.838-5.091,0.359-7.604
			c0.852-0.976,1.709-2.334,1.757-3.55c0.152-3.844-0.056-7.702-0.167-11.555c-0.125-4.311-1.434-8.396-4.841-10.969
			c-4.033-3.045-8.384-6.009-13.062-7.789c-9.328-3.548-19.075-5.348-29.132-6.224c-15.659-1.364-31.104-1.684-46.512,2.047
			c-18.358,4.444-36.39,9.714-52.402,20.118C19.255,147.531,10.5,155.817,9.288,169.4C9.216,170.208,8.646,170.969,8.306,171.753z"
			/>
		<path d="M8.306,171.753c0.339-0.784,0.91-1.546,0.982-2.354c1.212-13.583,9.967-21.87,20.476-28.698
			c16.012-10.404,34.044-15.674,52.402-20.118c15.408-3.73,30.853-3.411,46.512-2.047c10.058,0.876,19.805,2.676,29.132,6.224
			c4.677,1.78,9.029,4.743,13.062,7.789c3.407,2.573,4.716,6.658,4.841,10.969c0.111,3.853,0.319,7.711,0.167,11.556
			c-0.048,1.215-0.906,2.573-1.757,3.549c-2.197,2.514-2.693,4.771-0.359,7.604c0.794,0.965,1.13,3.379,0.486,4.268
			c-2.452,3.378-4.95,6.984-8.226,9.451c-10.691,8.047-22.734,13.314-35.921,15.91c-3.539,0.696-7.021,1.706-10.504,2.664
			c-4.568,1.257-7.048,7.188-4.617,11.151c0.355,0.579,1.4,0.993,2.151,1.036c17.052,0.963,34.1,2.461,51.162,2.645
			c27.934,0.3,55.88-0.02,83.813-0.546c17.83-0.335,35.671-1.153,53.459-2.425c14.797-1.059,29.535-2.991,44.279-4.728
			c11.885-1.397,23.807-2.68,35.584-4.734c16.441-2.87,32.766-6.405,49.131-9.694c0.73-0.146,1.385-0.68,2.715-1.36
			c-7.777-3.505-15.027-6.395-21.93-9.959c-14.922-7.705-30.006-15.196-44.346-23.893c-7.871-4.772-14.631-11.533-21.393-17.927
			c-4.631-4.378-7.781-10.04-9.232-16.385c-0.381-1.66-0.057-3.481,0.443-5.316c4.545,3.749,8.895,7.38,6.875,14.467
			c0.438-0.104,0.875-0.209,1.313-0.314c0.363-1.206,0.729-2.412,1.23-4.09c1.418,1.058,2.705,2.098,4.072,3.02
			c1.949,1.311,3.273,1.114,3.477-1.583c1.088-14.559,2.195-29.116,3.291-43.675c0.215-2.861,0.475-5.721,0.602-8.585
			c0.162-3.64-1.34-6.187-4.381-8.484c-8.385-6.334-14.863-13.842-12.387-25.568c0.176-0.833,0.203-1.792-0.025-2.6
			c-2.721-9.613,5.055-16.535,11.492-19.581c13.559-6.413,27.951-9.94,42.939-10.447c21.438-0.724,42.887-1.076,64.328-1.625
			c1.975-0.05,3.941-0.367,5.912-0.562c28.25,0,56.498,0,84.75,0c0,3,0,6,0,9c-14.068,0.831-28.135,1.712-42.205,2.462
			c-3.873,0.206-5.867,1.999-6.521,5.803c-2.369,13.741-4.875,27.458-7.281,41.191c-0.578,3.303,0.979,5.284,4.119,5.152
			c6.105-0.253,12.205-0.675,18.309-1.014c11.193-0.62,22.387-1.23,33.58-1.846c0,3.25,0,6.5,0,9.75
			c-1.359,0.197-2.713,0.497-4.08,0.574c-21.297,1.201-42.59,2.516-63.896,3.504c-14.203,0.658-28.426,0.895-42.643,1.215
			c-6.271,0.142-12.549,0.022-18.822,0.022c-0.068,0.441-0.139,0.883-0.207,1.323c1.17,0.506,2.314,1.084,3.516,1.507
			c10.695,3.774,21.469,7.344,32.082,11.334c7.777,2.926,15.438,6.201,22.992,9.667c11.266,5.169,21.988,11.367,30.602,20.42
			c6.113,6.429,9.65,13.869,6.119,23.204c-1.344,3.547-1.961,7.462-2.318,11.267c-0.572,6.064-2.586,11.118-7.143,15.432
			c-12.84,12.156-28.875,18.44-44.971,24.314c-12.852,4.688-26.188,8.063-39.344,11.895c-3.799,1.106-6.076,3.447-6.656,7.221
			c-1.1,7.146-1.973,14.325-2.953,21.488c-1.219,8.888-2.545,17.763-3.646,26.664c-0.875,7.059-1.521,14.146-2.189,21.228
			c-0.238,2.544,1.107,3.768,3.633,3.402c2.461-0.355,4.982-0.63,7.328-1.397c7.809-2.563,15.67-5.029,23.285-8.098
			c9.221-3.716,18.404-7.629,27.234-12.172c6.498-3.344,12.398-7.846,18.586-11.8c0.354-0.226,0.887-0.167,1.332-0.239
			c0.238,1.146,0.432,2.058,0.623,2.971c2.004-2.883,0.625-8.012,6.74-7.53c-0.461,1.257-0.854,2.504-1.367,3.699
			c-4.031,9.36-10.678,16.739-19.141,21.952c-10.346,6.37-21.023,12.4-32.125,17.296c-22.309,9.836-46.002,15.492-69.676,20.963
			c-8.244,1.904-16.672,3.041-25.041,4.373c-12.314,1.959-24.625,3.975-36.986,5.594c-9.75,1.275-19.575,1.992-29.366,2.958
			c-48.501,0-97,0-145.5,0c-11.317-1.658-22.672-3.092-33.94-5.037c-11.645-2.011-23.271-4.231-34.782-6.889
			c-12.174-2.812-23.462-7.635-31.908-17.405c-3.751-4.341-7.203-8.895-7.371-15.013c3.985-1.132,5.992,0.006,6.078,3.376
			c0.031,1.242-0.394,2.54-0.162,3.725c0.248,1.262,1.026,2.42,1.572,3.623c0.484-0.175,0.969-0.35,1.453-0.524
			c-0.224-1.844-0.448-3.687-0.738-6.075c1.434,0.778,2.619,1.334,3.712,2.031c6.758,4.316,13.845,7.867,21.739,9.617
			c4.428,0.98,6.643-0.528,6.256-5.073c-0.41-4.819-1.633-9.565-2.347-14.366c-2.401-16.139-4.757-32.281-7.08-48.432
			c-1-6.951-3.947-12.085-11.203-14.336c-6.977-2.163-13.867-4.709-20.573-7.601c-3.507-1.514-6.539-4.129-9.972-6.368
			c3.183-3.061,3.911-6.099,2.302-8.324c-0.542-0.75-1.812-0.974-2.749-1.438c-0.356,0.827-0.909,1.629-1.024,2.487
			c-0.175,1.3-0.045,2.64-0.045,3.96c-0.6,0.137-1.199,0.272-1.799,0.408c-1.294-3.064-3.035-6.023-3.789-9.218
			c-1.533-6.49-1.466-13.416-5.631-19.13C8.306,174.253,8.306,173.003,8.306,171.753z M233.718,257.507
			c-0.051,0.001-0.102,0.001-0.152,0.002c0-0.749,0.008-1.498-0.001-2.247c-0.044-3.622-0.113-7.244-0.138-10.867
			c-0.049-7.023-2.783-10.023-9.902-10.098c-12.357-0.125-24.722,0.222-37.075-0.024c-13.717-0.271-27.434-0.843-41.136-1.554
			c-11.207-0.581-22.41-1.375-33.582-2.422c-9.188-0.86-18.324-2.271-27.493-3.356c-5.033-0.596-7.809,1.966-7.105,6.467
			c1.867,11.952,3.813,23.895,5.667,35.85c1.546,9.973,2.841,19.988,4.562,29.929c1.275,7.366,3.953,9.554,11.449,10.569
			c11.37,1.544,22.706,3.412,34.111,4.604c11.404,1.191,22.867,1.91,34.321,2.481c10.335,0.516,20.692,0.671,31.042,0.765
			c9.962,0.093,19.932,0.064,29.889-0.234c4.806-0.146,7.048-2.687,6.944-7.492C234.739,292.418,234.197,274.963,233.718,257.507z
			 M267.1,316.294c1.767-0.101,2.641-0.13,3.512-0.2c12.563-1.012,25.133-1.936,37.682-3.076c9.188-0.834,18.418-1.527,27.502-3.04
			c17.207-2.861,34.334-6.214,51.469-9.483c4.43-0.847,8.051-3.146,8.73-8.015c1.457-10.452,2.76-20.929,3.926-31.418
			c0.604-5.443,0.588-10.958,1.209-16.399c0.703-6.184,1.861-12.312,2.713-18.479c0.838-6.065-1.643-8.447-7.699-7.463
			c-10.348,1.682-20.639,3.793-31.033,5.043c-22.91,2.754-45.848,5.324-68.818,7.481c-11.416,1.071-22.934,1.07-34.404,1.551
			c-6.963,0.292-10.827,3.865-10.745,10.241c0.293,22.676,0.655,45.349,1.02,68.022c0.041,2.527,1.104,4.41,3.896,4.61
			C260.027,315.958,264.008,316.125,267.1,316.294z M447.729,112.97c0.104-3.11-3.826-6.645-9.496-8.612
			c-13.271-4.603-26.566-9.194-39.574-14.471c-8.854-3.589-17.252-8.299-25.826-12.563c-3.316-1.65-4.572-1.154-5.139,2.435
			c-0.369,2.338-0.574,4.705-0.77,7.066c-1.199,14.669-2.316,29.345-3.598,44.007c-0.359,4.098,1.152,7.223,4.508,9.159
			c10.754,6.201,21.518,12.4,32.49,18.198c10.637,5.62,21.629,10.552,32.928,14.711c4.496,1.655,5.814,0.6,6.439-4.145
			c1.617-12.243,3.213-24.489,4.932-36.719C445.473,125.999,446.577,119.996,447.729,112.97z M446.831,19.932
			c-9.73,0-17.592-0.072-25.453,0.025c-4.986,0.063-6.205,1.126-6.969,5.909c-0.67,4.185-1.193,8.396-1.654,12.611
			c-1.057,9.661-2.059,19.33-3.029,29.001c-0.275,2.743,0.865,4.89,3.764,4.962c7.479,0.189,14.973,0.201,22.455,0.043
			c10.947-0.23,21.893-0.658,32.838-1.03c5.104-0.175,10.203-0.483,15.307-0.604c3.207-0.076,4.93-2.015,5.416-4.721
			c2.533-14.104,4.922-28.235,7.225-42.379c0.574-3.527-1.107-5.164-4.637-5.068C476.383,19.106,460.676,19.548,446.831,19.932z
			 M449.139,177.85c0.031,3.335,6.117,7.546,11.143,6.058c11.072-3.283,21.861-7.193,32.109-12.592
			c8.086-4.257,16.713-7.606,23.396-14.117c0.953-0.93,1.928-3.174,1.461-3.99c-2.012-3.517-4.23-7.028-6.965-9.997
			c-12.207-13.254-28.143-20.697-44.314-27.624c-5.691-2.438-7.457-0.977-8.359,5.166c-1.65,11.221-3.609,22.396-5.313,33.608
			C451.215,161.5,450.364,168.672,449.139,177.85z M134.6,174.004c-0.016-0.517-0.031-1.031-0.047-1.547
			c-1.87-0.104-3.805-0.564-5.598-0.241c-5.269,0.95-10.487,2.183-15.711,3.368c-2.662,0.604-3.945-0.11-4.033-3.086
			c-0.107-3.611-0.567-7.218-1.003-10.813c-0.658-5.424-0.262-5.833,5.239-6.548c10.609-1.379,20.626-4.568,29.711-10.346
			c0.758-0.481,1.876-1.611,1.722-2.052c-0.297-0.85-1.292-1.588-2.162-2.08c-7.633-4.325-16.272-4.873-24.625-5.514
			c-13.253-1.016-26.355,0.969-39.182,4.601c-4.91,1.39-7.261,4.308-6.348,9.337c1.622,8.942,3.696,17.804,5.279,26.752
			c0.503,2.841,1.726,3.674,4.403,3.766c15.01,0.514,29.931,0.014,44.623-3.458C129.469,175.532,132.023,174.723,134.6,174.004z
			 M348.942,42.234c0.982,1.774,1.555,4.07,3.023,5.229c5.82,4.594,11.605,9.386,18.004,13.059
			c7.617,4.374,15.863,7.648,23.813,11.451c4.051,1.938,6.016,1.102,7.01-3.228c0.275-1.208,0.234-2.484,0.453-3.71
			c2.248-12.704,0.445-25.854,4.213-38.392c0.139-0.467,0.104-0.99,0.127-1.487c0.127-2.771-1.09-4.29-3.973-4.129
			c-16.475,0.927-32.248,4.507-47.049,12.063C350.764,35.031,349.483,37.958,348.942,42.234z M38.156,181.945
			c0.801,4.27,1.735,8.519,2.361,12.813c0.539,3.693,2.66,5.291,6.151,5.845c12.682,2.014,25.341,4.173,38.026,6.173
			c3.959,0.623,7.97,0.916,12.115,1.378c-0.561-5.564-3.996-7.652-9.917-8.211C69.294,198.283,51.835,195.981,38.156,181.945z
			 M64.141,176.609c-1.927-8.768-3.482-16.758-5.529-24.619c-0.646-2.483-2.956-3.337-5.367-1.428
			c-3.209,2.542-6.615,4.89-9.538,7.729c-5.737,5.576-5.649,6.669,0.939,10.906C50.198,172.766,56.313,175.105,64.141,176.609z
			 M35.634,196.461c-0.219-2.044-0.25-3.496-0.546-4.891c-0.934-4.381-1.987-8.735-2.957-13.108
			c-0.806-3.638-1.449-7.313-2.369-10.92c-0.826-3.24-2.866-3.977-5.1-1.874c-4.597,4.325-8.225,9.303-9.789,15.561
			c-0.908,3.631,4.88,9.219,8.491,7.875c2.386-0.887,3.333,0.061,3.946,1.885C28.602,194.821,31.814,195.396,35.634,196.461z
			 M146.684,169.083c0.373,0.272,0.745,0.546,1.117,0.818c2.6-1.317,5.17-2.699,7.808-3.936c2.683-1.257,3.416-3.229,2.958-6.083
			c-0.71-4.423-0.971-8.92-1.757-13.327c-0.482-2.704-1.428-5.429-5.3-6.495c0.282,2.255,0.336,3.976,0.731,5.612
			c1.446,5.995,1,11.411-3.254,16.421C147.517,163.827,147.413,166.72,146.684,169.083z M160.971,229.374
			c2.375,0.113,4.195-0.271,4.144-3.353c-0.069-4.192-1.482-5.805-5.435-5.917c-2.326-0.064-3.882,0.475-3.892,3.24
			C155.774,227.834,156.976,229.315,160.971,229.374z M273.696,223.104c0.224-2.774-1.136-3.93-4.021-3.798
			c-3.716,0.17-4.663,1.215-4.709,5.129c-0.037,3.074,1.299,4.274,4.322,4.115C272.864,228.362,273.757,227.396,273.696,223.104z
			 M255.583,224.98c0.003-4.277-0.635-4.992-4.086-4.986c-3.92,0.005-4.901,0.983-4.881,4.751c0.014,2.704,0.711,4.5,4.02,4.324
			C253.694,228.907,256.226,228.593,255.583,224.98z M182.986,226.208c-0.106-4.075-1.761-5.777-5.356-5.565
			c-2.352,0.14-3.626,1.213-3.53,3.781c0.155,4.107,1.465,5.487,5.306,5.502C182.074,229.936,183.431,228.906,182.986,226.208z
			 M237.234,225.616c0.024-3.936-1.234-5.132-4.959-5.138c-2.831-0.004-4.058,1.474-3.978,4.177
			c0.077,2.613,0.342,5.198,3.933,4.959C234.896,229.434,237.705,229.225,237.234,225.616z M125.746,187.34
			c0.143,4.632,1.889,6.313,5.727,5.455c4.229-0.946,2.002-4.107,2.036-6.378c0.024-1.654,0.689-4.061-2.49-3.854
			C127.306,182.805,125.651,184.26,125.746,187.34z M286.59,227.366c4.186,0.018,4.959-0.831,5.137-4.782
			c0.117-2.64-0.714-3.934-3.582-3.864c-4.043,0.098-5.057,0.928-5.201,4.606C282.836,226.116,283.805,227.67,286.59,227.366z
			 M318.184,222.516c0.459,0.421,1.473,2.15,2.736,2.362c3.793,0.634,5.641-1.493,6.023-5.943c0.174-2.02-0.391-3.032-2.566-3.035
			C320.258,215.894,318.403,217.408,318.184,222.516z M214.878,229.637c2.678,0.233,4.21-0.681,4.187-3.731
			c-0.023-3.203-1.102-4.939-4.594-4.725c-2.517,0.155-4.376,0.628-4.308,3.779C210.232,228.158,211.389,229.986,214.878,229.637z
			 M377.913,211.352c-0.521-0.387-1.502-1.711-2.604-1.821c-3.822-0.385-5.473,1.491-5.707,5.864
			c-0.088,1.662-0.34,3.299,2.156,3.416C375.551,218.991,377.682,216.858,377.913,211.352z M335.157,222.052
			c0.566,0.575,1.133,1.149,1.699,1.724c2.326-0.963,5.195-1.412,6.781-3.082c0.963-1.012,0.436-4.167-0.43-5.84
			c-0.363-0.701-4.207-0.771-4.928,0.119C336.713,216.907,336.139,219.643,335.157,222.052z M99.72,191.803
			c0.3-3.088-0.918-4.926-4.156-4.702c-1.959,0.135-4.746-0.331-4.397,3.005c0.26,2.488,0.23,5.55,4.117,5.429
			C97.759,195.457,100.26,195.387,99.72,191.803z M309.122,221.172c0.098-3.354-0.273-3.831-2.971-3.848
			c-3.918-0.025-5.24,1.223-5.436,4.932c-0.125,2.364,0.492,3.858,3.244,3.858C308.168,226.115,309,225.393,309.122,221.172z
			 M192.496,224.594c-0.013,4.36,0.775,5.127,4.688,5.164c2.485,0.023,4.081-0.564,3.978-3.549c-0.137-3.91-0.964-4.827-4.852-4.929
			C193.785,221.214,192.051,221.81,192.496,224.594z M76.943,221.032c0.227-0.291,1.683-1.313,1.809-2.48
			c0.424-3.919-1.238-5.6-4.678-6.09c-3.693-0.525-3.441,2.465-3.647,4.284C70.044,220.115,72.401,221.212,76.943,221.032z
			 M113.678,185.994c-4.471,0.088-5.408,0.72-5.253,3.712c0.125,2.396,0.214,4.945,3.764,4.77c3.103-0.154,5.061-1.975,5.008-4.8
			C117.151,187.223,116.474,185.417,113.678,185.994z M60.954,219.047c0.433-0.072,1.063,0.013,1.381-0.262
			c2.302-1.986,2.177-5.004,0.698-6.66c-1.43-1.603-4.472-2.687-6.651-2.467c-2.799,0.28-0.249,2.446-0.285,3.779
			c-0.013,0.491,0.097,0.986,0.108,1.479C56.278,217.996,58.291,218.835,60.954,219.047z M104.131,221.013
			c0.163,4.822,0.423,4.904,4.979,4.919c2.777,0.01,3.027-1.538,2.979-3.591c-0.076-3.29-1.991-5.271-4.982-5.274
			C104.055,217.064,103.601,218.803,104.131,221.013z M122.644,218.273c-0.438,0.385-2.194,1.172-2.319,2.166
			c-0.459,3.639,1.221,5.882,3.964,5.983c2.456,0.09,4.494-0.374,4.594-3.535C129,219.202,126.562,218.639,122.644,218.273z
			 M222.766,324.52c0.296-2.818-0.938-4.239-4.04-4.147c-2.49,0.073-4.026,0.781-4.009,3.615c0.019,2.946,1.296,4.237,4.285,4.268
			C221.609,328.281,223.105,327.531,222.766,324.52z M386.719,215.751c5.818,0.15,7.289-1.333,7.043-6.565
			c-0.117-2.544-1.752-2.302-3.381-2.125C386.87,207.442,385.661,210.233,386.719,215.751z M357.782,212.207
			c-3.693,0.063-4.738,1.306-4.779,5.207c-0.023,2.232,0.641,3.445,3.211,3.315c3.844-0.193,4.631-1.167,4.621-5.829
			C360.831,212.448,359.622,211.916,357.782,212.207z M168.546,319.903c-0.255-0.269-0.511-0.535-0.766-0.805
			c-0.877,1.037-2.385,1.998-2.518,3.123c-0.471,3.974,0.664,5.133,4.222,5.387c2.213,0.158,3.732-0.45,3.638-2.959
			C173.015,321.803,172.357,319.357,168.546,319.903z M256.571,323.281c0.308-2.956-1.49-3.479-3.952-3.553
			c-2.667-0.077-4.259,0.52-4.192,3.69c0.058,2.729,1.464,3.531,3.752,3.498C254.539,326.881,256.858,326.638,256.571,323.281z
			 M409.018,204.194c-5.717-0.323-7.311,1.13-6.912,6.529c0.059,0.793,1.564,2.122,2.381,2.107
			C408.204,212.764,409.827,209.593,409.018,204.194z M186.462,327.766c2.273,0.249,3.528-0.656,3.42-3.33
			c-0.14-3.464-2.515-3.837-5.109-3.989c-2.104-0.125-3.168,0.724-3.149,3.032C181.652,326.708,183.276,327.92,186.462,327.766z
			 M305.917,320.157c0.184-2.198-0.643-3.736-3.547-3.452c-2.26,0.222-4.572,0.107-4.558,3.431c0.013,2.835,1.356,4.103,4.091,3.931
			C304.124,323.926,306.2,323.498,305.917,320.157z M235.919,327.791c2.343,0.167,4.007-0.499,3.842-3.446
			c-0.139-2.493-0.661-4.286-3.792-4.227c-2.512,0.047-4.039,0.592-3.921,3.493C232.152,326.145,232.683,328.078,235.919,327.791z
			 M322.071,316.473c-0.684-0.402-1.898-1.703-3.141-1.729c-2.582-0.052-5,0.724-4.82,4.213c0.104,2.044,0.373,3.641,3.094,3.491
			C320.356,322.275,322.131,320.707,322.071,316.473z M87.136,216.367c0.256,5.581,1.433,7.275,4.488,6.886
			c0.984-0.126,2.533-1.408,2.592-2.248c0.271-3.863-1.859-6.547-4.833-6.249C88.404,214.854,87.536,216.061,87.136,216.367z
			 M331.706,319.927c4.248,0.396,6.406-0.442,6.477-3.987c0.037-1.871-0.414-3.379-2.631-3.098c-2.602,0.33-5.545,0.672-5.254,4.356
			C330.389,318.368,331.45,319.461,331.706,319.927z M150.173,319.256c-0.284,0.524-1.35,1.634-1.423,2.805
			c-0.193,3.061,1.634,4.502,4.625,4.432c1.975-0.048,3.357-0.793,3.225-3.11C156.409,320.018,154.396,318.935,150.173,319.256z
			 M280.713,324.618c0.488,0.496,0.977,0.99,1.467,1.486c2.082-0.776,4.492-1.162,6.107-2.503c0.771-0.641,0.635-3.985-0.164-4.526
			c-1.213-0.824-4.047-1.001-4.947-0.146C281.797,320.241,281.48,322.667,280.713,324.618z M133.159,316.432
			c-0.89,3.702-1.19,6.381,1.542,7.896c1.202,0.667,4.045,0.799,4.311,0.264c0.716-1.443,1.212-4.095,0.403-4.954
			C137.974,318.107,135.506,317.545,133.159,316.432z M424.176,201.565c-5.023-1.38-7.604,1.361-6.084,8.27
			C423.504,209.607,424.383,208.442,424.176,201.565z M202.648,327.883c2.199,0.225,3.491-0.363,3.514-2.973
			c0.027-3.137-1.511-4.138-4.339-4.13c-2.148,0.006-3.614,0.519-3.568,3.084C198.308,326.836,199.676,328.209,202.648,327.883z
			 M147.061,226.692c0.052-4.656-1.635-7.184-4.236-7.062c-0.852,0.04-2.279,1.148-2.365,1.896
			c-0.419,3.626,1.404,7.168,3.341,6.813C145.126,228.097,146.312,227.09,147.061,226.692z M368.42,308.125
			c-4.689-0.652-6.998,0.713-7.346,4.163c-0.182,1.785,0.027,3.261,2.354,3.277C367.147,315.596,368.717,313.352,368.42,308.125z
			 M438.467,198.071c-4.992-0.518-6.121,0.48-6.479,5.774c-0.061,0.875,0.17,2.258,0.729,2.563c0.678,0.372,1.979,0.101,2.779-0.328
			C438.833,204.292,438.733,201.21,438.467,198.071z M117.97,315.52c-0.31,0.442-1.406,1.307-1.493,2.263
			c-0.273,3.007,2.34,5.596,5.529,5.44c0.794-0.038,2.115-1.292,2.187-2.078C124.473,318.042,122.086,315.662,117.97,315.52z
			 M271.517,319.2c-5.029-0.65-6.631,0.205-6.767,3.51c-0.082,1.973-0.108,3.772,2.834,3.58
			C271.5,326.033,272.08,325.184,271.517,319.2z M66.322,191.57c-0.285-7.142-0.998-8.119-5.732-8.072
			C58.869,189.442,60.943,192.525,66.322,191.57z M353.286,312.139c-0.518-0.334-1.463-1.433-2.498-1.524
			c-2.941-0.263-5.252,1.915-4.873,4.627c0.131,0.942,1.443,2.332,2.35,2.444C351.395,318.079,353.221,316.248,353.286,312.139z
			 M86.726,310.731c-0.732,5.219,0.337,7.278,3.675,7.638c2.316,0.249,2.684-0.987,2.624-2.909
			C92.905,311.59,91.48,310.434,86.726,310.731z M132.515,165.615c4.462-0.422,6.063-2.47,5.441-6.051
			c-0.211-1.217-1.081-2.319-1.649-3.475c-1.264,1.108-3.12,1.996-3.641,3.383C132.03,161.166,132.515,163.281,132.515,165.615z
			 M107.863,318.85c0.18-4.351-1.801-5.488-4.462-5.188c-0.832,0.094-1.971,1.786-2.112,2.858c-0.41,3.117,1.768,4.262,4.387,4.101
			C106.658,320.56,107.556,319.116,107.863,318.85z M166.999,156.862c0.573,0.355,1.146,0.711,1.719,1.066
			c0.965-1.429,2.252-2.749,2.789-4.323c0.403-1.186,0.292-3.035-0.412-3.973c-0.743-0.99-2.46-1.248-3.752-1.826
			c-0.375,1.344-1.029,2.682-1.057,4.033C166.251,153.508,166.737,155.187,166.999,156.862z M396.692,301.452
			c-4.721,0.658-6.656,2.618-5.768,6.039c0.184,0.7,1.998,1.529,2.918,1.387C396.983,308.387,397.946,305.731,396.692,301.452z
			 M382.75,306.108c-0.395-0.24-1.234-1.184-2.084-1.189c-2.824-0.023-4.396,1.4-4.182,4.447c0.111,1.577,0.039,2.993,2.369,2.863
			C382.356,312.034,382.713,309.682,382.75,306.108z M154.957,176.629c0.071,1.252-0.04,1.93,0.175,2.479
			c0.374,0.962,0.948,1.847,1.438,2.764c0.996-0.613,2.628-1.049,2.856-1.873c0.462-1.676,0.303-3.574,0.113-5.353
			c-0.074-0.691-0.936-1.848-1.41-1.833c-0.85,0.026-1.964,0.581-2.44,1.276C155.11,174.936,155.077,176.156,154.957,176.629z
			 M442.905,97.569c-2.027-1.548-3.16-2.411-4.293-3.275c-0.896,1.198-2.154,2.275-2.605,3.624
			c-0.688,2.054,0.311,4.082,2.539,3.807C439.852,101.561,440.928,99.546,442.905,97.569z M456.231,107.243
			c1.611,1.043,2.66,1.723,3.713,2.402c0.939-1.521,2.52-3.011,2.605-4.58c0.061-1.114-1.896-2.339-2.953-3.514
			C458.62,103.206,457.641,104.859,456.231,107.243z M425.331,294.268c-4.061-0.137-5.857,1.768-6.465,5.104
			c-0.369,2.022,0.332,2.802,2.434,2.262C425.098,300.656,425.073,297.654,425.331,294.268z M481.694,119.29
			c0.393-1.964,1.076-3.671,0.945-5.314c-0.09-1.143-1.193-2.295-2.082-3.217c-0.203-0.213-1.662,0.287-2.041,0.818
			C476.549,114.336,477.895,117.948,481.694,119.29z M437.801,289.893c-0.914,0-1.406-0.051-1.887,0.008
			c-3.318,0.403-3.639,3.027-3.832,5.526c-0.049,0.634,0.943,1.348,1.459,2.024c1.42-1.557,2.947-3.031,4.197-4.715
			C438.139,292.2,437.801,291.116,437.801,289.893z M490.891,125.686c0.686-3.154,1.318-5.015,1.396-6.898
			c0.037-0.865-0.887-1.914-1.629-2.605c-0.342-0.319-1.82-0.14-1.889,0.083c-0.551,1.833-1.26,3.751-1.152,5.6
			C487.676,122.881,489.213,123.813,490.891,125.686z M405.94,305.284c5.279-0.671,6.324-2.107,5.318-7.039
			C406.321,298.25,405.235,299.615,405.94,305.284z M452.786,101.486c-1.525-1.595-2.504-2.613-3.479-3.635
			c-0.943,1.516-2.4,2.955-2.637,4.573c-0.135,0.932,1.705,2.151,2.656,3.241C450.336,104.445,451.346,103.225,452.786,101.486z
			 M26.666,158.941c3.708-1.401,3.947-5.777,0.498-9.107C24.079,152.354,23.953,154.654,26.666,158.941z M171.745,169.539
			c-1.796-1.66-2.995-2.769-4.194-3.877c-1.039,1.245-2.673,2.384-2.919,3.768c-0.178,1.006,1.481,2.337,2.321,3.522
			C168.368,171.945,169.782,170.937,171.745,169.539z M48.402,178.786c-0.598,5.383,0.297,7.044,4.187,8.101
			C53.892,182.104,52.737,179.743,48.402,178.786z M473.913,109.945c-1.488-1.516-2.561-2.607-3.633-3.7
			c-0.77,1.468-2.164,2.954-2.119,4.396c0.039,1.28,1.678,2.511,2.609,3.763C471.635,113.179,472.499,111.954,473.913,109.945z
			 M29.266,201.323c0.646,2.885,0.942,5.147,1.737,7.222c0.263,0.687,1.813,0.88,2.774,1.3c0.358-0.936,1.104-1.918,1-2.799
			C34.473,204.49,33.446,202.286,29.266,201.323z M159.642,135.637c-1.552-2.313-2.807-4.186-4.062-6.058
			c-0.559,0.905-1.637,1.849-1.577,2.711c0.158,2.263-0.687,5.334,2.836,5.862C157.46,138.248,158.299,136.888,159.642,135.637z
			 M501.911,180.014c4.303-1.659,5.676-5.827,3.814-9.783C501.594,172.296,502.588,176.09,501.911,180.014z M445.219,200.401
			c1.217,1.094,2.318,2.33,2.502,2.207c1.48-1.002,2.789-2.26,4.15-3.438c-1.086-1.095-2.17-2.189-3.256-3.285
			C447.584,197.254,446.553,198.625,445.219,200.401z M63.313,310.785c0.965-3.874-0.652-7.823-5.033-6.809
			C57.454,308.495,58.79,310.301,63.313,310.785z M411.874,86.709c-1.666-1.313-2.744-2.163-3.826-3.015
			c-0.781,1.184-1.906,2.271-2.264,3.57c-0.535,1.938,0.463,3.829,2.533,3.499C409.469,90.582,410.331,88.563,411.874,86.709z
			 M47.402,215.143c0.92-5.065-0.829-8.265-4.235-8.094C42.549,211.731,43.598,213.852,47.402,215.143z M430.047,97.842
			c-0.406-2.614,2.619-5.464-1.363-7.169c-2.117-0.906-2.805,0.596-3.01,2.449C425.37,95.886,425.653,98.146,430.047,97.842z
			 M449.524,285.549c-4.289,0.437-5.16,1.819-4.225,6.704C449.206,292.05,450.684,289.704,449.524,285.549z M421.399,90.189
			c-1.705-1.338-2.803-2.197-3.9-3.058c-0.662,1.438-1.805,2.871-1.824,4.317c-0.012,0.985,1.547,1.991,2.404,2.988
			C419.016,93.24,419.952,92.041,421.399,90.189z M429.7,180.926c0.998-2.582,2.092-5.012-0.588-6.839
			c-0.443-0.302-2.594,0.75-2.859,1.544C425.36,178.296,425.717,180.67,429.7,180.926z M499.36,129.903
			c0.494-2.296,1.08-4.187,1.229-6.109c0.063-0.782-0.732-1.723-1.342-2.408c-0.193-0.217-1.221-0.031-1.574,0.291
			C495.915,123.268,496.665,128.005,499.36,129.903z M78.488,314.938c-0.651-2.358-0.969-4.248-1.745-5.924
			c-0.276-0.596-1.651-0.81-2.557-0.915c-0.297-0.035-0.898,0.775-1.017,1.28C72.583,311.856,74.684,314.448,78.488,314.938z
			 M472.745,193.584c3.637-1.204,4.559-3.134,3.725-7.374C472.622,186.604,471.864,188.033,472.745,193.584z M461.377,280.391
			c-3.924,0.271-5.115,2.153-4.793,7.142C460.995,287.124,460.973,283.817,461.377,280.391z M421.807,172.274
			c-1.49-1.146-2.504-1.928-3.518-2.709c-0.699,1.082-2.078,2.271-1.93,3.223c0.195,1.271,1.578,2.358,2.451,3.524
			C419.655,175.176,420.497,174.04,421.807,172.274z M471.073,274.357c-3.9,1.966-4.814,4.578-3.824,8.743
			C470.54,280.861,471.592,278.293,471.073,274.357z M439.176,185.748c0.639-2.462,2.73-4.878-0.539-6.861
			c-0.441-0.268-2.039,0.359-2.26,0.908C435.301,182.48,435.928,184.629,439.176,185.748z M146.001,150.559
			c-0.452-0.036-0.905-0.07-1.357-0.107c-0.28,2.747-0.562,5.492-0.912,8.926C147.61,157.303,148.025,154.406,146.001,150.559z
			 M403.006,164.434c-1.26-1.27-2.107-2.125-2.957-2.979c-0.807,1.062-2.271,2.145-2.238,3.18c0.035,1.101,1.492,2.155,2.328,3.229
			C400.961,166.878,401.784,165.894,403.006,164.434z M506.327,126.459c-0.307,0.22-0.611,0.438-0.916,0.659
			c-0.279,1.824-0.781,3.658-0.715,5.472c0.021,0.653,1.418,1.254,2.186,1.88c0.475-1.877,1.182-3.738,1.307-5.638
			C508.237,128.086,506.987,127.253,506.327,126.459z M166.814,142.666c-0.271-2.849-0.359-5.041-0.758-7.174
			c-0.114-0.61-1.081-1.139-1.764-1.501c-0.145-0.076-1.125,0.758-1.098,1.127C163.383,137.707,162.815,140.656,166.814,142.666z
			 M497.895,176.443c-3.811,0.02-3.783,2.459-4.027,4.422c-0.105,0.856,0.619,1.817,0.967,2.731c0.74-0.705,1.824-1.283,2.145-2.146
			C497.518,180.008,497.573,178.384,497.895,176.443z M20.458,165.945c0-2.844,0-5.688,0-9.132
			C17.313,159.433,17.233,162.799,20.458,165.945z M417.52,72.983c-1.125,2.168-2.088,3.302-2.176,4.497
			c-0.043,0.603,1.906,2.042,2.252,1.849c0.992-0.556,2.033-1.664,2.26-2.726C420.008,75.887,418.811,74.884,417.52,72.983z
			 M411.909,168.819c-1.164-1.275-2.033-2.226-2.9-3.175c-0.664,0.938-1.998,2.013-1.84,2.78c0.256,1.243,1.492,2.285,2.314,3.411
			C410.153,171.002,410.823,170.169,411.909,168.819z M503.913,14.967c3.902,1.177,5.445,0.492,5.365-2.148
			c-0.027-0.901-1.01-1.774-1.557-2.662C506.608,11.564,505.493,12.972,503.913,14.967z M536.965,9.925
			c-4.359-1.656-5.133,0.43-5.516,2.525c-0.105,0.567,1.127,1.379,1.746,2.077C534.338,13.132,535.483,11.735,536.965,9.925z
			 M46.562,297.853c0.599,3.333,0.352,6.266,4.241,7.148C51.255,301.759,50.749,299.292,46.562,297.853z M442.592,17.278
			c0.479,0.013,0.955,0.024,1.434,0.036c0.516-1.114,1.352-2.209,1.426-3.353c0.043-0.683-1.111-1.441-1.729-2.165
			c-0.873,0.961-2.057,1.802-2.494,2.932C441.002,15.314,442.094,16.411,442.592,17.278z M124.785,166.651
			c-1.206-1.429-1.963-2.326-2.721-3.224c-0.611,1.333-1.474,2.621-1.725,4.021c-0.121,0.672,0.912,1.552,1.423,2.337
			C122.638,168.875,123.516,167.967,124.785,166.651z M393.674,162.802c-0.764-1.918-1.527-3.837-2.291-5.755
			c-0.633,0.558-1.668,1.021-1.824,1.69C389.018,161.065,389.317,163.124,393.674,162.802z M487.78,181.709
			c-0.404-0.256-0.813-0.514-1.219-0.771c-0.887,1.384-2.074,2.679-2.52,4.191c-0.189,0.634,1.197,1.731,1.869,2.619
			c0.561-0.68,1.422-1.282,1.611-2.052C487.836,184.425,487.717,183.045,487.78,181.709z M458.838,14.135
			c1.262,1.341,1.895,2.015,2.527,2.688c0.951-1.017,2.049-1.946,2.744-3.114c0.154-0.264-1.33-2.059-1.654-1.949
			C461.334,12.137,460.395,13.045,458.838,14.135z M419.122,14.475c-1.736-1.328-2.943-2.604-3.246-2.419
			c-1.047,0.646-2.01,1.701-2.51,2.82c-0.182,0.401,1.24,2.141,1.594,2.043C416.122,16.599,417.129,15.717,419.122,14.475z
			 M382.54,152.038c-1.955,5.194-1.465,6.51,2.266,6.589C385.131,156.193,386.274,153.564,382.54,152.038z M427.852,14.144
			c-1.588-1.064-2.785-2.329-3.266-2.098c-1.01,0.487-2.037,1.669-2.273,2.739c-0.127,0.565,1.527,2.219,2.131,2.103
			C425.467,16.689,426.297,15.481,427.852,14.144z M486.571,14.916c3.178,1.348,4.953,1.052,4.818-1.562
			c-0.043-0.889-1.174-1.723-1.809-2.581C488.577,12.154,487.575,13.535,486.571,14.916z M437.418,13.789
			c-1.629-0.858-2.895-1.882-3.232-1.636c-0.947,0.692-1.811,1.834-2.092,2.953c-0.127,0.516,1.184,1.391,1.842,2.102
			C434.899,16.263,435.86,15.318,437.418,13.789z M527.834,9.853c-3.951-0.506-4.705,1.229-4.641,3.411
			c0.014,0.51,1.285,0.982,1.979,1.473C525.983,13.25,526.792,11.765,527.834,9.853z M480.641,9.925
			c-1.201,2.19-2.035,3.281-2.342,4.503c-0.109,0.432,1.068,1.187,1.658,1.793c0.814-0.994,1.83-1.896,2.348-3.025
			C482.514,12.743,481.631,11.788,480.641,9.925z M438.915,76.769c-1.367-1.123-2.547-2.368-2.762-2.22
			c-0.971,0.672-1.922,1.64-2.332,2.711c-0.152,0.4,1.391,2.065,1.811,1.944C436.659,78.907,437.485,77.906,438.915,76.769z
			 M447.706,76.371c-1.469-0.98-2.637-2.124-2.971-1.917c-0.979,0.604-1.986,1.657-2.24,2.713c-0.129,0.536,1.615,2.205,2.043,2.051
			C445.565,78.85,446.315,77.709,447.706,76.371z M488.512,71.66c-1.16,2.018-2.104,3.017-2.223,4.105
			c-0.07,0.643,1.168,1.426,1.816,2.146c0.77-0.946,1.816-1.796,2.191-2.878C490.497,74.458,489.524,73.478,488.512,71.66z
			 M511.149,140.997c0.594,0.03,1.188,0.062,1.781,0.093c0.154-2.543,2.498-5.03,0.393-7.631c-0.438-0.026-0.875-0.052-1.313-0.078
			C511.723,135.919,511.436,138.458,511.149,140.997z M395.229,15.186c0.896,1.414,1.422,2.242,1.945,3.069
			c0.893-0.95,2.037-1.782,2.557-2.904c0.225-0.485-0.848-1.569-1.328-2.382C397.446,13.637,396.491,14.304,395.229,15.186z
			 M518.879,12.007c-1.16-0.879-1.807-1.368-2.451-1.857c-0.803,1.086-1.77,2.101-2.297,3.306c-0.15,0.342,0.979,1.245,1.52,1.89
			C516.573,14.391,517.497,13.437,518.879,12.007z M375.04,154.373c0.807-0.068,1.615-0.138,2.424-0.206
			c-0.217-1.845-0.414-3.691-0.732-5.52c-0.012-0.062-1.826,0.082-1.828,0.146C374.872,150.653,374.965,152.513,375.04,154.373z
			 M554.063,10.132c-1.467-0.838-2.631-1.742-2.818-1.57c-0.98,0.89-1.902,1.971-2.422,3.168c-0.168,0.385,0.957,1.328,1.492,2.017
			C551.368,12.73,552.42,11.715,554.063,10.132z M451.891,17.343c0.395,0.018,0.785,0.037,1.178,0.055
			c0.521-1.05,1.367-2.073,1.449-3.156c0.055-0.703-1.008-1.491-1.568-2.241c-0.725,0.945-1.74,1.801-2.07,2.869
			C450.676,15.526,451.518,16.507,451.891,17.343z M473.952,13.606c-1.227-0.893-2.271-1.894-2.461-1.751
			c-0.961,0.715-1.969,1.624-2.379,2.69c-0.17,0.441,1.102,1.44,1.719,2.186C471.7,15.862,472.567,14.992,473.952,13.606z
			 M409.055,15.608c-1.027-1.376-1.605-2.149-2.184-2.922c-0.807,0.898-1.93,1.687-2.303,2.737
			c-0.217,0.609,0.773,1.646,1.223,2.491C406.745,17.242,407.696,16.569,409.055,15.608z M475.915,275.26
			c0.498,0.284,0.996,0.568,1.494,0.854c2.66-1.275,2.75-3.667,2.605-6.161c-0.416-0.196-0.832-0.394-1.248-0.588
			C477.817,271.329,476.866,273.294,475.915,275.26z M445.075,187.09c0.6,0.434,1.199,0.868,1.801,1.302
			c0.943-1.257,1.947-2.478,2.727-3.829c0.07-0.12-1.313-1.079-2.02-1.647C446.747,184.306,445.911,185.698,445.075,187.09z
			 M505.405,78.23c0.982-1.988,1.715-3.044,1.945-4.199c0.066-0.338-1.291-0.961-1.994-1.452c-0.615,0.891-1.504,1.714-1.742,2.696
			C503.479,75.835,504.401,76.652,505.405,78.23z M495.504,14.764c3.703,1.688,4.453,0.262,4.447-1.756
			c-0.002-0.768-0.775-1.533-1.195-2.299C497.749,11.964,496.743,13.22,495.504,14.764z M391.879,15.327
			c-3.525-0.837-4.33,0.618-4.076,2.734c0.066,0.549,1.049,0.988,1.609,1.479C390.235,18.135,391.057,16.73,391.879,15.327z
			 M379.723,20.99c3.834-0.199,4.289-1.898,4.055-3.852c-0.063-0.515-1.111-0.911-1.709-1.362
			C381.387,17.293,380.704,18.811,379.723,20.99z M482.18,74.406c-0.682-0.446-1.363-0.895-2.047-1.341
			c-0.703,1.166-1.494,2.294-2.018,3.536c-0.078,0.186,1.096,0.897,1.689,1.366C480.598,76.781,481.389,75.593,482.18,74.406z
			 M426.672,80.478c0.996-1.827,1.768-2.647,1.814-3.51c0.043-0.752-0.729-1.55-1.143-2.328c-0.719,0.813-1.713,1.526-2.055,2.477
			C425.081,77.698,425.87,78.641,426.672,80.478z M544.891,10.147c-0.623-0.518-1.248-1.034-1.873-1.551
			c-0.855,1.118-1.842,2.167-2.479,3.398c-0.164,0.315,0.777,1.203,1.211,1.828C542.799,12.597,543.844,11.372,544.891,10.147z
			 M369.918,143.826c-0.453,0.005-0.906,0.011-1.357,0.017c0,2.066,0,4.133,0,6.2c0.451-0.005,0.904-0.01,1.357-0.016
			C369.918,147.96,369.918,145.893,369.918,143.826z M516.069,72.453c-3.127-0.646-4.4,0.102-4.244,2.348
			c0.047,0.656,1.08,1.244,1.66,1.862C514.262,75.397,515.04,74.129,516.069,72.453z M14.061,173.542
			c0.54-0.063,1.079-0.126,1.618-0.189c-0.287-2.537-0.574-5.075-0.861-7.611c-0.491,0.049-0.982,0.099-1.473,0.146
			C13.584,168.438,13.823,170.991,14.061,173.542z M520.518,75.403c0.395,0.265,0.787,0.529,1.182,0.792
			c0.855-1.313,1.711-2.626,2.977-4.571C520.28,71.062,520.04,72.931,520.518,75.403z"/>
		<path display="none" fill="#FFFFFF" d="M285.807,331.503c9.791-0.966,19.617-1.683,29.367-2.958
			c12.361-1.619,24.672-3.635,36.986-5.594c8.369-1.332,16.797-2.469,25.041-4.373c23.674-5.471,47.367-11.127,69.676-20.963
			c11.1-4.896,21.779-10.926,32.123-17.296c8.465-5.213,15.109-12.592,19.141-21.952c0.516-1.195,0.908-2.442,1.369-3.699
			c-6.117-0.48-4.736,4.647-6.742,7.53c-0.191-0.913-0.383-1.824-0.623-2.971c-0.445,0.072-0.979,0.015-1.33,0.239
			c-6.188,3.954-12.09,8.456-18.588,11.8c-8.83,4.543-18.014,8.456-27.234,12.172c-7.613,3.067-15.477,5.535-23.285,8.098
			c-2.344,0.769-4.867,1.042-7.328,1.397c-2.523,0.364-3.871-0.858-3.631-3.403c0.666-7.081,1.313-14.168,2.188-21.227
			c1.104-8.901,2.43-17.776,3.646-26.664c0.98-7.163,1.854-14.343,2.953-21.488c0.582-3.772,2.857-6.113,6.656-7.221
			c13.156-3.831,26.492-7.205,39.344-11.895c16.098-5.874,32.131-12.158,44.973-24.314c4.557-4.313,6.568-9.366,7.141-15.432
			c0.357-3.805,0.977-7.72,2.318-11.267c3.533-9.334-0.004-16.775-6.119-23.204c-8.611-9.053-19.336-15.251-30.602-20.42
			c-7.553-3.467-15.215-6.741-22.992-9.667c-10.613-3.991-21.387-7.56-32.082-11.334c-1.199-0.423-2.344-1.001-3.514-1.507
			c0.068-0.44,0.137-0.882,0.205-1.323c6.273,0,12.551,0.118,18.822-0.022c14.217-0.32,28.439-0.558,42.643-1.215
			c21.309-0.988,42.602-2.303,63.896-3.504c1.367-0.077,2.723-0.377,4.082-0.574c0,84.688,0,169.378,0,254.25
			C464.807,331.503,375.305,331.503,285.807,331.503z"/>
		<path display="none" fill="#FFFFFF" d="M8.306,175.503c4.165,5.714,4.098,12.64,5.631,19.13c0.754,3.193,2.494,6.152,3.789,9.218
			c0.6-0.136,1.199-0.271,1.799-0.408c0-1.32-0.129-2.66,0.045-3.96c0.116-0.858,0.668-1.66,1.024-2.487
			c0.937,0.464,2.207,0.688,2.749,1.438c1.609,2.227,0.881,5.265-2.302,8.324c3.434,2.239,6.465,4.854,9.972,6.368
			c6.707,2.892,13.596,5.438,20.573,7.601c7.256,2.251,10.203,7.385,11.203,14.336c2.323,16.149,4.679,32.293,7.08,48.432
			c0.714,4.801,1.938,9.547,2.347,14.366c0.386,4.544-1.828,6.055-6.256,5.073c-7.894-1.75-14.981-5.301-21.739-9.617
			c-1.093-0.697-2.278-1.253-3.712-2.031c0.29,2.39,0.514,4.231,0.738,6.075c-0.484,0.176-0.969,0.351-1.453,0.524
			c-0.546-1.203-1.325-2.361-1.572-3.623c-0.232-1.185,0.193-2.481,0.162-3.725c-0.086-3.37-2.093-4.508-6.078-3.376
			c0.168,6.118,3.619,10.672,7.371,15.013c8.445,9.771,19.734,14.595,31.908,17.405c11.512,2.656,23.137,4.878,34.782,6.889
			c11.268,1.945,22.623,3.379,33.94,5.037c-43.943,0-87.885,0-132,0C8.306,279.503,8.306,227.503,8.306,175.503z"/>
		<path display="none" fill="#FFFFFF" d="M554.307,67.503c-11.193,0.614-22.389,1.226-33.582,1.846
			c-6.102,0.338-12.201,0.761-18.307,1.014c-3.143,0.131-4.699-1.851-4.119-5.152c2.406-13.733,4.912-27.45,7.279-41.191
			c0.656-3.804,2.648-5.597,6.521-5.803c14.072-0.75,28.139-1.631,42.205-2.462C554.307,33.003,554.307,50.253,554.307,67.503z"/>
		<path display="none" fill="#FFFFFF" d="M233.718,257.507c0.479,17.456,1.021,34.911,1.399,52.369
			c0.104,4.807-2.138,7.348-6.944,7.492c-9.957,0.3-19.927,0.326-29.889,0.234c-10.35-0.094-20.707-0.249-31.042-0.765
			c-11.455-0.571-22.917-1.29-34.321-2.481c-11.406-1.19-22.741-3.06-34.111-4.604c-7.496-1.018-10.174-3.203-11.449-10.569
			c-1.721-9.939-3.016-19.956-4.562-29.929C80.945,257.3,79,245.359,77.132,233.405c-0.704-4.501,2.072-7.062,7.105-6.466
			c9.169,1.085,18.305,2.496,27.493,3.356c11.172,1.047,22.375,1.841,33.582,2.422c13.702,0.711,27.419,1.281,41.136,1.554
			c12.353,0.246,24.717-0.101,37.075,0.024c7.12,0.073,9.853,3.073,9.902,10.098c0.025,3.623,0.094,7.245,0.138,10.867
			c0.009,0.749,0.001,1.498,0.001,2.247C233.616,257.508,233.667,257.508,233.718,257.507z"/>
		<path display="none" fill="#FFFFFF" d="M267.1,316.294c-3.092-0.17-7.072-0.336-11.045-0.623c-2.792-0.2-3.855-2.083-3.896-4.61
			c-0.365-22.675-0.727-45.348-1.02-68.022c-0.083-6.376,3.782-9.949,10.745-10.241c11.472-0.479,22.988-0.479,34.406-1.551
			c22.971-2.157,45.908-4.729,68.816-7.481c10.396-1.25,20.688-3.36,31.033-5.043c6.059-0.983,8.539,1.396,7.699,7.463
			c-0.852,6.167-2.01,12.295-2.713,18.479c-0.619,5.441-0.604,10.956-1.209,16.399c-1.166,10.489-2.467,20.967-3.926,31.418
			c-0.68,4.868-4.299,7.168-8.729,8.015c-17.137,3.271-34.262,6.622-51.469,9.483c-9.086,1.513-18.316,2.206-27.502,3.04
			c-12.551,1.142-25.121,2.064-37.683,3.076C269.74,316.165,268.866,316.195,267.1,316.294z"/>
		<path display="none" fill="#FFFFFF" d="M447.729,112.97c-1.152,7.025-2.256,13.028-3.104,19.067
			c-1.721,12.229-3.314,24.476-4.932,36.719c-0.627,4.743-1.943,5.8-6.439,4.145c-11.299-4.159-22.291-9.091-32.928-14.711
			c-10.975-5.798-21.738-11.997-32.49-18.198c-3.355-1.937-4.867-5.063-4.51-9.159c1.281-14.662,2.398-29.338,3.6-44.007
			c0.193-2.361,0.398-4.729,0.768-7.066c0.566-3.589,1.822-4.085,5.141-2.435c8.572,4.265,16.973,8.975,25.824,12.563
			c13.01,5.275,26.305,9.868,39.574,14.471C443.903,106.326,447.833,109.86,447.729,112.97z"/>
		<path display="none" fill="#FFFFFF" d="M446.831,19.932c13.846-0.384,29.553-0.826,45.262-1.25
			c3.527-0.095,5.211,1.542,4.637,5.068c-2.303,14.145-4.691,28.274-7.225,42.379c-0.486,2.706-2.209,4.646-5.416,4.721
			c-5.104,0.12-10.205,0.429-15.309,0.604c-10.945,0.373-21.891,0.8-32.838,1.03c-7.482,0.158-14.975,0.146-22.455-0.043
			c-2.896-0.072-4.039-2.219-3.764-4.962c0.973-9.671,1.975-19.34,3.031-29.001c0.459-4.215,0.982-8.427,1.652-12.611
			c0.764-4.783,1.982-5.848,6.969-5.909C429.239,19.86,437.1,19.932,446.831,19.932z"/>
		<path display="none" fill="#FFFFFF" d="M449.139,177.85c1.225-9.178,2.076-16.351,3.158-23.488
			c1.703-11.214,3.66-22.389,5.313-33.608c0.902-6.143,2.668-7.604,8.359-5.166c16.174,6.927,32.107,14.37,44.314,27.624
			c2.732,2.968,4.953,6.479,6.965,9.997c0.467,0.816-0.508,3.062-1.461,3.99c-6.686,6.511-15.313,9.86-23.396,14.117
			c-10.248,5.397-21.037,9.309-32.109,12.592C455.256,185.396,449.17,181.185,449.139,177.85z"/>
		<path display="none" fill="#FFFFFF" d="M134.6,174.004c-2.576,0.719-5.131,1.527-7.731,2.141
			c-14.692,3.472-29.613,3.972-44.623,3.458c-2.678-0.092-3.9-0.925-4.403-3.766c-1.583-8.949-3.658-17.811-5.279-26.752
			c-0.913-5.029,1.438-7.947,6.348-9.337c12.827-3.631,25.929-5.616,39.182-4.601c8.353,0.641,16.992,1.188,24.625,5.514
			c0.87,0.492,1.865,1.23,2.162,2.08c0.154,0.439-0.964,1.569-1.722,2.052c-9.085,5.776-19.102,8.967-29.711,10.346
			c-5.501,0.715-5.897,1.124-5.239,6.548c0.436,3.593,0.896,7.2,1.003,10.813c0.088,2.976,1.372,3.689,4.033,3.086
			c5.224-1.187,10.443-2.418,15.711-3.368c1.793-0.323,3.728,0.139,5.598,0.241C134.568,172.973,134.584,173.49,134.6,174.004z"/>
		<path display="none" fill="#FFFFFF" d="M348.942,42.234c0.541-4.275,1.822-7.202,5.621-9.144
			c14.801-7.556,30.574-11.136,47.051-12.063c2.883-0.161,4.1,1.359,3.971,4.129c-0.021,0.497,0.014,1.021-0.127,1.487
			c-3.766,12.538-1.965,25.688-4.213,38.392c-0.217,1.226-0.176,2.502-0.453,3.71c-0.992,4.329-2.957,5.165-7.008,3.228
			c-7.949-3.803-16.195-7.077-23.814-11.451c-6.396-3.673-12.182-8.465-18.004-13.059C350.497,46.304,349.926,44.008,348.942,42.234
			z"/>
		<path display="none" fill="#FFFFFF" d="M38.156,181.945c13.679,14.036,31.138,16.339,48.736,17.996
			c5.921,0.559,9.356,2.646,9.917,8.211c-4.145-0.462-8.156-0.755-12.115-1.378c-12.685-2-25.344-4.159-38.026-6.173
			c-3.491-0.554-5.612-2.15-6.151-5.845C39.891,190.462,38.957,186.213,38.156,181.945z"/>
		<path display="none" fill="#FFFFFF" d="M64.141,176.609c-7.828-1.504-13.943-3.843-19.494-7.41
			c-6.589-4.237-6.677-5.33-0.939-10.906c2.923-2.841,6.329-5.188,9.538-7.729c2.411-1.909,4.72-1.057,5.367,1.428
			C60.659,159.851,62.214,167.841,64.141,176.609z"/>
		<path display="none" fill="#FFFFFF" d="M35.634,196.461c-3.82-1.065-7.033-1.642-8.323-5.475c-0.614-1.823-1.56-2.771-3.946-1.884
			c-3.611,1.343-9.399-4.244-8.491-7.875c1.564-6.258,5.192-11.234,9.789-15.561c2.234-2.103,4.273-1.366,5.1,1.874
			c0.919,3.606,1.563,7.283,2.369,10.92c0.969,4.373,2.023,8.729,2.957,13.108C35.385,192.965,35.416,194.417,35.634,196.461z"/>
		<path display="none" fill="#FFFFFF" d="M146.684,169.083c0.729-2.362,0.833-5.255,2.304-6.988c4.254-5.01,4.7-10.426,3.254-16.421
			c-0.395-1.637-0.449-3.356-0.731-5.612c3.872,1.066,4.817,3.792,5.3,6.495c0.786,4.406,1.047,8.904,1.757,13.327
			c0.458,2.854-0.275,4.826-2.958,6.083c-2.638,1.236-5.208,2.618-7.808,3.936C147.429,169.628,147.057,169.356,146.684,169.083z"/>
		<path display="none" fill="#FFFFFF" d="M160.972,229.375c-3.996-0.061-5.198-1.54-5.183-6.029c0.01-2.767,1.566-3.306,3.892-3.24
			c3.952,0.112,5.365,1.725,5.435,5.917C165.167,229.103,163.346,229.489,160.972,229.375z"/>
		<path display="none" fill="#FFFFFF" d="M273.696,223.104c0.061,4.292-0.832,5.258-4.407,5.446
			c-3.023,0.159-4.359-1.041-4.322-4.115c0.046-3.914,0.993-4.959,4.709-5.129C272.561,219.174,273.92,220.329,273.696,223.104z"/>
		<path display="none" fill="#FFFFFF" d="M255.583,224.98c0.643,3.613-1.889,3.928-4.948,4.089c-3.309,0.176-4.006-1.62-4.02-4.324
			c-0.02-3.768,0.961-4.746,4.881-4.751C254.948,219.989,255.586,220.702,255.583,224.98z"/>
		<path display="none" fill="#FFFFFF" d="M182.986,226.208c0.444,2.697-0.913,3.728-3.581,3.718
			c-3.841-0.015-5.151-1.395-5.306-5.502c-0.096-2.568,1.178-3.643,3.53-3.781C181.225,220.431,182.88,222.133,182.986,226.208z"/>
		<path display="none" fill="#FFFFFF" d="M237.234,225.616c0.471,3.608-2.339,3.817-5.003,3.998
			c-3.591,0.239-3.856-2.346-3.933-4.959c-0.08-2.703,1.146-4.181,3.978-4.177C236,220.485,237.259,221.681,237.234,225.616z"/>
		<path display="none" fill="#FFFFFF" d="M125.746,187.34c-0.095-3.08,1.56-4.535,5.272-4.776c3.179-0.206,2.514,2.199,2.49,3.854
			c-0.034,2.271,2.194,5.432-2.036,6.378C127.635,193.653,125.889,191.972,125.746,187.34z"/>
		<path display="none" fill="#FFFFFF" d="M286.59,227.366c-2.785,0.305-3.754-1.25-3.646-4.04c0.145-3.68,1.158-4.51,5.201-4.606
			c2.868-0.068,3.699,1.226,3.582,3.864C291.549,226.535,290.775,227.383,286.59,227.366z"/>
		<path display="none" fill="#FFFFFF" d="M318.184,222.516c0.219-5.107,2.074-6.622,6.193-6.616c2.178,0.003,2.74,1.017,2.566,3.035
			c-0.385,4.45-2.23,6.577-6.023,5.943C319.655,224.667,318.643,222.937,318.184,222.516z"/>
		<path display="none" fill="#FFFFFF" d="M214.878,229.637c-3.489,0.349-4.646-1.479-4.715-4.677
			c-0.068-3.151,1.792-3.624,4.308-3.779c3.492-0.216,4.571,1.521,4.594,4.724C219.088,228.957,217.556,229.871,214.878,229.637z"/>
		<path display="none" fill="#FFFFFF" d="M377.913,211.352c-0.23,5.506-2.361,7.64-6.154,7.459
			c-2.494-0.117-2.244-1.754-2.154-3.416c0.234-4.373,1.883-6.249,5.705-5.864C376.411,209.641,377.391,210.965,377.913,211.352z"/>
		<path display="none" fill="#FFFFFF" d="M335.157,222.052c0.98-2.409,1.557-5.146,3.123-7.079c0.721-0.891,4.564-0.82,4.928-0.119
			c0.865,1.673,1.393,4.828,0.432,5.84c-1.586,1.67-4.455,2.119-6.783,3.082C336.29,223.202,335.723,222.627,335.157,222.052z"/>
		<path display="none" fill="#FFFFFF" d="M99.72,191.803c0.54,3.584-1.961,3.653-4.437,3.73c-3.886,0.12-3.856-2.939-4.117-5.429
			c-0.349-3.336,2.438-2.87,4.397-3.005C98.801,186.877,100.02,188.715,99.72,191.803z"/>
		<path display="none" fill="#FFFFFF" d="M309.122,221.172c-0.121,4.221-0.953,4.94-5.162,4.942c-2.752,0-3.367-1.494-3.244-3.858
			c0.195-3.709,1.52-4.957,5.436-4.932C308.848,217.341,309.219,217.82,309.122,221.172z"/>
		<path display="none" fill="#FFFFFF" d="M192.496,224.594c-0.445-2.784,1.289-3.38,3.813-3.313
			c3.888,0.102,4.715,1.019,4.852,4.929c0.104,2.983-1.492,3.572-3.978,3.549C193.271,229.721,192.483,228.955,192.496,224.594z"/>
		<path display="none" fill="#FFFFFF" d="M76.943,221.032c-4.542,0.181-6.899-0.918-6.517-4.286
			c0.206-1.819-0.046-4.811,3.647-4.284c3.44,0.49,5.103,2.171,4.678,6.09C78.626,219.718,77.17,220.741,76.943,221.032z"/>
		<path display="none" fill="#FFFFFF" d="M113.678,185.994c2.796-0.576,3.473,1.229,3.52,3.682c0.053,2.825-1.905,4.646-5.008,4.8
			c-3.55,0.177-3.64-2.373-3.764-4.77C108.27,186.713,109.207,186.082,113.678,185.994z"/>
		<path display="none" fill="#FFFFFF" d="M60.954,219.047c-2.663-0.212-4.676-1.052-4.75-4.129
			c-0.012-0.493-0.121-0.988-0.108-1.479c0.037-1.333-2.514-3.499,0.285-3.779c2.18-0.22,5.222,0.864,6.651,2.467
			c1.479,1.656,1.604,4.674-0.698,6.66C62.016,219.06,61.387,218.975,60.954,219.047z"/>
		<path display="none" fill="#FFFFFF" d="M104.131,221.013c-0.531-2.21-0.076-3.949,2.976-3.946
			c2.991,0.003,4.906,1.984,4.982,5.274c0.047,2.053-0.203,3.601-2.979,3.591C104.555,225.917,104.294,225.835,104.131,221.013z"/>
		<path display="none" fill="#FFFFFF" d="M122.644,218.273c3.917,0.366,6.356,0.93,6.239,4.614
			c-0.101,3.161-2.139,3.625-4.594,3.535c-2.743-0.103-4.423-2.346-3.964-5.983C120.45,219.445,122.206,218.657,122.644,218.273z"/>
		<path display="none" fill="#FFFFFF" d="M222.766,324.52c0.339,3.012-1.157,3.761-3.764,3.734c-2.989-0.029-4.266-1.32-4.285-4.268
			c-0.018-2.834,1.519-3.542,4.009-3.615C221.827,320.281,223.062,321.701,222.766,324.52z"/>
		<path display="none" fill="#FFFFFF" d="M386.719,215.751c-1.059-5.52,0.15-8.311,3.662-8.69c1.629-0.177,3.264-0.419,3.381,2.125
			C394.008,214.418,392.538,215.903,386.719,215.751z"/>
		<path display="none" fill="#FFFFFF" d="M357.782,212.207c1.84-0.291,3.049,0.241,3.053,2.693c0.01,4.662-0.777,5.636-4.621,5.829
			c-2.57,0.13-3.234-1.083-3.211-3.315C353.043,213.512,354.088,212.27,357.782,212.207z"/>
		<path display="none" fill="#FFFFFF" d="M168.546,319.903c3.812-0.546,4.469,1.9,4.576,4.746c0.094,2.509-1.425,3.117-3.638,2.959
			c-3.558-0.254-4.692-1.412-4.222-5.387c0.133-1.125,1.641-2.086,2.518-3.123C168.035,319.367,168.291,319.634,168.546,319.903z"/>
		<path display="none" fill="#FFFFFF" d="M256.571,323.281c0.288,3.357-2.032,3.602-4.392,3.637
			c-2.288,0.033-3.694-0.771-3.752-3.498c-0.066-3.172,1.526-3.769,4.192-3.69C255.081,319.8,256.879,320.324,256.571,323.281z"/>
		<path display="none" fill="#FFFFFF" d="M409.018,204.194c0.809,5.399-0.814,8.57-4.531,8.638
			c-0.816,0.015-2.322-1.314-2.381-2.107C401.708,205.323,403.301,203.87,409.018,204.194z"/>
		<path display="none" fill="#FFFFFF" d="M186.462,327.766c-3.186,0.154-4.811-1.058-4.838-4.287
			c-0.019-2.31,1.045-3.157,3.149-3.032c2.594,0.152,4.97,0.525,5.109,3.989C189.99,327.11,188.736,328.015,186.462,327.766z"/>
		<path display="none" fill="#FFFFFF" d="M305.917,320.157c0.283,3.341-1.793,3.77-4.014,3.908
			c-2.732,0.171-4.078-1.096-4.091-3.931c-0.017-3.322,2.298-3.209,4.558-3.431C305.274,316.42,306.1,317.958,305.917,320.157z"/>
		<path display="none" fill="#FFFFFF" d="M235.919,327.791c-3.237,0.287-3.768-1.646-3.871-4.18
			c-0.118-2.901,1.409-3.446,3.921-3.493c3.131-0.061,3.653,1.732,3.792,4.227C239.927,327.292,238.263,327.958,235.919,327.791z"/>
		<path display="none" fill="#FFFFFF" d="M322.071,316.473c0.061,4.233-1.715,5.802-4.867,5.977
			c-2.721,0.148-2.988-1.447-3.094-3.491c-0.18-3.489,2.238-4.265,4.82-4.213C320.172,314.77,321.389,316.072,322.071,316.473z"/>
		<path display="none" fill="#FFFFFF" d="M87.136,216.367c0.4-0.307,1.269-1.514,2.248-1.611c2.973-0.298,5.103,2.386,4.833,6.249
			c-0.059,0.84-1.608,2.122-2.592,2.248C88.569,223.643,87.392,221.948,87.136,216.367z"/>
		<path display="none" fill="#FFFFFF" d="M331.706,319.927c-0.256-0.466-1.316-1.56-1.408-2.729
			c-0.291-3.686,2.652-4.026,5.254-4.356c2.217-0.281,2.668,1.227,2.631,3.098C338.112,319.485,335.954,320.324,331.706,319.927z"/>
		<path display="none" fill="#FFFFFF" d="M150.173,319.256c4.223-0.321,6.236,0.762,6.427,4.125c0.132,2.317-1.25,3.063-3.225,3.11
			c-2.991,0.07-4.818-1.371-4.625-4.432C148.823,320.89,149.889,319.781,150.173,319.256z"/>
		<path display="none" fill="#FFFFFF" d="M280.713,324.618c0.768-1.951,1.084-4.377,2.463-5.688c0.9-0.855,3.734-0.68,4.947,0.146
			c0.799,0.541,0.936,3.887,0.164,4.526c-1.615,1.341-4.025,1.727-6.107,2.503C281.689,325.609,281.202,325.115,280.713,324.618z"/>
		<path display="none" fill="#FFFFFF" d="M133.159,316.432c2.347,1.113,4.815,1.675,6.256,3.204c0.81,0.859,0.313,3.511-0.403,4.954
			c-0.266,0.535-3.108,0.403-4.311-0.264C131.969,322.813,132.269,320.134,133.159,316.432z"/>
		<path display="none" fill="#FFFFFF" d="M424.176,201.565c0.207,6.877-0.672,8.042-6.084,8.27
			C416.573,202.926,419.151,200.185,424.176,201.565z"/>
		<path display="none" fill="#FFFFFF" d="M202.648,327.883c-2.973,0.326-4.341-1.047-4.394-4.019
			c-0.046-2.565,1.42-3.078,3.568-3.085c2.828-0.007,4.366,0.994,4.339,4.131C206.14,327.52,204.848,328.108,202.648,327.883z"/>
		<path display="none" fill="#FFFFFF" d="M147.061,226.692c-0.749,0.398-1.935,1.405-3.26,1.647
			c-1.937,0.354-3.76-3.188-3.341-6.813c0.086-0.745,1.513-1.854,2.365-1.896C145.425,219.508,147.112,222.035,147.061,226.692z"/>
		<path display="none" fill="#FFFFFF" d="M368.42,308.125c0.297,5.227-1.271,7.471-4.99,7.44c-2.328-0.018-2.537-1.492-2.355-3.277
			C361.422,308.838,363.729,307.473,368.42,308.125z"/>
		<path display="none" fill="#FFFFFF" d="M438.467,198.071c0.266,3.141,0.365,6.222-2.971,8.01c-0.801,0.429-2.102,0.7-2.779,0.328
			c-0.559-0.306-0.789-1.688-0.729-2.563C432.346,198.551,433.475,197.553,438.467,198.071z"/>
		<path display="none" fill="#FFFFFF" d="M117.97,315.52c4.116,0.143,6.502,2.522,6.223,5.625c-0.071,0.786-1.392,2.04-2.187,2.078
			c-3.189,0.154-5.802-2.435-5.529-5.44C116.564,316.826,117.661,315.962,117.97,315.52z"/>
		<path display="none" fill="#FFFFFF" d="M271.517,319.2c0.563,5.983-0.017,6.833-3.933,7.09c-2.942,0.192-2.916-1.607-2.834-3.58
			C264.886,319.406,266.487,318.549,271.517,319.2z"/>
		<path display="none" fill="#FFFFFF" d="M66.322,191.57c-5.379,0.955-7.453-2.128-5.732-8.072
			C65.324,183.45,66.038,184.428,66.322,191.57z"/>
		<path display="none" fill="#FFFFFF" d="M353.286,312.139c-0.064,4.108-1.891,5.939-5.021,5.547
			c-0.906-0.112-2.219-1.502-2.352-2.444c-0.377-2.713,1.932-4.89,4.873-4.627C351.823,310.707,352.77,311.805,353.286,312.139z"/>
		<path display="none" fill="#FFFFFF" d="M86.726,310.731c4.755-0.297,6.18,0.859,6.299,4.729c0.06,1.922-0.308,3.158-2.624,2.909
			C87.063,318.009,85.993,315.949,86.726,310.731z"/>
		<path display="none" fill="#FFFFFF" d="M132.515,165.615c0-2.333-0.484-4.449,0.151-6.143c0.521-1.387,2.376-2.273,3.641-3.383
			c0.569,1.155,1.438,2.258,1.649,3.475C138.578,163.145,136.977,165.193,132.515,165.615z"/>
		<path display="none" fill="#FFFFFF" d="M107.863,318.85c-0.307,0.267-1.205,1.71-2.188,1.771
			c-2.619,0.161-4.797-0.982-4.387-4.101c0.141-1.072,1.28-2.766,2.112-2.858C106.062,313.362,108.043,314.5,107.863,318.85z"/>
		<path display="none" fill="#FFFFFF" d="M166.999,156.862c-0.261-1.675-0.748-3.354-0.713-5.021
			c0.028-1.351,0.682-2.689,1.057-4.033c1.292,0.578,3.01,0.836,3.752,1.826c0.704,0.938,0.815,2.787,0.412,3.973
			c-0.536,1.574-1.824,2.896-2.789,4.323C168.145,157.573,167.572,157.217,166.999,156.862z"/>
		<path display="none" fill="#FFFFFF" d="M396.692,301.452c1.254,4.278,0.291,6.936-2.85,7.426c-0.92,0.144-2.734-0.687-2.918-1.387
			C390.036,304.072,391.971,302.111,396.692,301.452z"/>
		<path display="none" fill="#FFFFFF" d="M382.75,306.108c-0.037,3.574-0.395,5.927-3.895,6.121
			c-2.332,0.13-2.258-1.286-2.369-2.863c-0.217-3.047,1.355-4.472,4.18-4.447C381.516,304.924,382.356,305.867,382.75,306.108z"/>
		<path display="none" fill="#FFFFFF" d="M154.957,176.629c0.12-0.474,0.153-1.693,0.732-2.539c0.476-0.695,1.59-1.25,2.44-1.276
			c0.474-0.015,1.336,1.142,1.41,1.833c0.189,1.777,0.349,3.677-0.113,5.353c-0.228,0.824-1.86,1.26-2.856,1.873
			c-0.49-0.917-1.064-1.802-1.438-2.764C154.917,178.559,155.028,177.881,154.957,176.629z"/>
		<path display="none" fill="#FFFFFF" d="M442.905,97.569c-1.977,1.979-3.055,3.992-4.359,4.154
			c-2.229,0.275-3.227-1.753-2.539-3.807c0.451-1.349,1.709-2.426,2.605-3.624C439.745,95.157,440.877,96.021,442.905,97.569z"/>
		<path display="none" fill="#FFFFFF" d="M456.231,107.243c1.408-2.385,2.389-4.037,3.365-5.69c1.057,1.175,3.014,2.398,2.953,3.514
			c-0.086,1.569-1.666,3.059-2.605,4.58C458.893,108.966,457.842,108.286,456.231,107.243z"/>
		<path display="none" fill="#FFFFFF" d="M425.331,294.268c-0.258,3.386-0.232,6.388-4.031,7.365
			c-2.102,0.54-2.803-0.238-2.434-2.262C419.473,296.035,421.27,294.131,425.331,294.268z"/>
		<path display="none" fill="#FFFFFF" d="M481.694,119.29c-3.799-1.341-5.146-4.953-3.178-7.713
			c0.379-0.531,1.838-1.031,2.041-0.818c0.889,0.922,1.992,2.074,2.082,3.217C482.77,115.619,482.086,117.326,481.694,119.29z"/>
		<path display="none" fill="#FFFFFF" d="M437.801,289.893c0,1.224,0.338,2.308-0.063,2.846c-1.25,1.683-2.777,3.157-4.197,4.714
			c-0.516-0.678-1.508-1.392-1.459-2.024c0.193-2.499,0.514-5.123,3.832-5.526C436.395,289.842,436.887,289.893,437.801,289.893z"/>
		<path display="none" fill="#FFFFFF" d="M490.891,125.686c-1.678-1.872-3.215-2.804-3.273-3.823
			c-0.107-1.847,0.602-3.765,1.154-5.599c0.064-0.223,1.545-0.401,1.887-0.083c0.742,0.692,1.666,1.74,1.629,2.605
			C492.209,120.67,491.577,122.531,490.891,125.686z"/>
		<path display="none" fill="#FFFFFF" d="M405.94,305.284c-0.705-5.669,0.381-7.033,5.318-7.039
			C412.264,303.176,411.219,304.614,405.94,305.284z"/>
		<path display="none" fill="#FFFFFF" d="M452.786,101.486c-1.439,1.739-2.449,2.959-3.459,4.18c-0.951-1.09-2.791-2.31-2.656-3.241
			c0.234-1.618,1.691-3.058,2.637-4.573C450.282,98.872,451.26,99.891,452.786,101.486z"/>
		<path display="none" fill="#FFFFFF" d="M26.666,158.941c-2.712-4.287-2.587-6.587,0.498-9.107
			C30.613,153.163,30.374,157.539,26.666,158.941z"/>
		<path display="none" fill="#FFFFFF" d="M171.745,169.539c-1.963,1.397-3.377,2.405-4.792,3.413
			c-0.84-1.187-2.499-2.518-2.321-3.522c0.246-1.384,1.88-2.522,2.919-3.768C168.75,166.771,169.949,167.879,171.745,169.539z"/>
		<path display="none" fill="#FFFFFF" d="M48.402,178.786c4.335,0.957,5.49,3.317,4.187,8.101
			C48.699,185.83,47.804,184.168,48.402,178.786z"/>
		<path display="none" fill="#FFFFFF" d="M473.913,109.945c-1.414,2.01-2.277,3.234-3.143,4.458
			c-0.932-1.252-2.57-2.482-2.609-3.763c-0.045-1.441,1.35-2.929,2.119-4.396C471.352,107.336,472.424,108.429,473.913,109.945z"/>
		<path display="none" fill="#FFFFFF" d="M29.266,201.323c4.18,0.963,5.208,3.167,5.512,5.723c0.104,0.881-0.642,1.863-1,2.799
			c-0.961-0.42-2.511-0.613-2.774-1.3C30.208,206.471,29.912,204.208,29.266,201.323z"/>
		<path display="none" fill="#FFFFFF" d="M159.642,135.637c-1.343,1.251-2.182,2.61-2.803,2.517c-3.522-0.528-2.678-3.6-2.836-5.862
			c-0.06-0.863,1.018-1.807,1.577-2.711C156.835,131.451,158.09,133.323,159.642,135.637z"/>
		<path display="none" fill="#FFFFFF" d="M501.911,180.014c0.678-3.924-0.316-7.718,3.814-9.783
			C507.586,174.187,506.213,178.355,501.911,180.014z"/>
		<path display="none" fill="#FFFFFF" d="M445.219,200.401c1.334-1.774,2.365-3.146,3.396-4.518c1.086,1.096,2.17,2.19,3.256,3.285
			c-1.361,1.18-2.67,2.438-4.15,3.438C447.538,202.731,446.436,201.494,445.219,200.401z"/>
		<path display="none" fill="#FFFFFF" d="M63.313,310.785c-4.523-0.483-5.858-2.29-5.033-6.809
			C62.66,302.961,64.277,306.911,63.313,310.785z"/>
		<path display="none" fill="#FFFFFF" d="M411.874,86.709c-1.543,1.854-2.404,3.873-3.557,4.056c-2.07,0.33-3.068-1.561-2.533-3.499
			c0.357-1.299,1.48-2.388,2.264-3.57C409.129,84.547,410.208,85.398,411.874,86.709z"/>
		<path display="none" fill="#FFFFFF" d="M47.402,215.143c-3.805-1.291-4.854-3.412-4.235-8.094
			C46.573,206.878,48.322,210.077,47.402,215.143z"/>
		<path display="none" fill="#FFFFFF" d="M430.047,97.842c-4.395,0.304-4.678-1.956-4.373-4.72c0.205-1.854,0.893-3.354,3.01-2.449
			C432.667,92.378,429.641,95.228,430.047,97.842z"/>
		<path display="none" fill="#FFFFFF" d="M449.524,285.549c1.158,4.154-0.318,6.501-4.225,6.704
			C444.364,287.369,445.235,285.986,449.524,285.549z"/>
		<path display="none" fill="#FFFFFF" d="M421.399,90.189c-1.447,1.852-2.385,3.051-3.32,4.249
			c-0.857-0.997-2.416-2.003-2.404-2.988c0.02-1.447,1.162-2.88,1.824-4.317C418.596,87.992,419.694,88.851,421.399,90.189z"/>
		<path display="none" fill="#FFFFFF" d="M429.7,180.926c-3.982-0.256-4.34-2.63-3.447-5.295c0.266-0.794,2.416-1.846,2.859-1.544
			C431.792,175.915,430.698,178.344,429.7,180.926z"/>
		<path display="none" fill="#FFFFFF" d="M499.36,129.903c-2.695-1.896-3.445-6.635-1.688-8.228
			c0.354-0.321,1.381-0.507,1.574-0.291c0.609,0.686,1.402,1.626,1.342,2.408C500.44,125.716,499.856,127.607,499.36,129.903z"/>
		<path display="none" fill="#FFFFFF" d="M78.488,314.938c-3.804-0.49-5.905-3.082-5.319-5.559c0.119-0.505,0.72-1.315,1.017-1.28
			c0.906,0.105,2.281,0.319,2.557,0.915C77.519,310.69,77.836,312.579,78.488,314.938z"/>
		<path display="none" fill="#FFFFFF" d="M472.745,193.584c-0.881-5.552-0.123-6.98,3.725-7.374
			C477.303,190.451,476.381,192.38,472.745,193.584z"/>
		<path display="none" fill="#FFFFFF" d="M461.377,280.391c-0.404,3.426-0.383,6.732-4.793,7.142
			C456.262,282.544,457.454,280.661,461.377,280.391z"/>
		<path display="none" fill="#FFFFFF" d="M421.807,172.274c-1.311,1.767-2.152,2.902-2.996,4.038
			c-0.871-1.166-2.254-2.254-2.451-3.524c-0.146-0.95,1.23-2.141,1.932-3.223C419.303,170.346,420.317,171.126,421.807,172.274z"/>
		<path display="none" fill="#FFFFFF" d="M471.073,274.357c0.52,3.938-0.533,6.504-3.824,8.743
			C466.258,278.935,467.172,276.323,471.073,274.357z"/>
		<path display="none" fill="#FFFFFF" d="M439.176,185.748c-3.248-1.118-3.875-3.269-2.799-5.953
			c0.221-0.549,1.816-1.176,2.26-0.908C441.905,180.87,439.815,183.286,439.176,185.748z"/>
		<path display="none" fill="#FFFFFF" d="M146.001,150.559c2.024,3.847,1.608,6.744-2.269,8.817
			c0.351-3.434,0.632-6.179,0.912-8.926C145.097,150.489,145.549,150.523,146.001,150.559z"/>
		<path display="none" fill="#FFFFFF" d="M403.006,164.434c-1.223,1.46-2.045,2.444-2.867,3.43c-0.836-1.074-2.293-2.13-2.328-3.229
			c-0.033-1.035,1.434-2.118,2.238-3.18C400.897,162.309,401.747,163.165,403.006,164.434z"/>
		<path display="none" fill="#FFFFFF" d="M506.327,126.459c0.66,0.794,1.91,1.627,1.859,2.374c-0.125,1.898-0.832,3.761-1.307,5.638
			c-0.768-0.626-2.162-1.228-2.186-1.88c-0.066-1.813,0.436-3.647,0.715-5.472C505.715,126.899,506.02,126.679,506.327,126.459z"/>
		<path display="none" fill="#FFFFFF" d="M166.814,142.666c-3.999-2.01-3.432-4.959-3.621-7.548
			c-0.027-0.369,0.954-1.203,1.098-1.127c0.683,0.362,1.65,0.891,1.764,1.501C166.455,137.625,166.544,139.818,166.814,142.666z"/>
		<path display="none" fill="#FFFFFF" d="M497.895,176.443c-0.322,1.941-0.377,3.565-0.916,5.009
			c-0.32,0.861-1.404,1.439-2.145,2.146c-0.348-0.914-1.072-1.875-0.967-2.731C494.112,178.902,494.084,176.461,497.895,176.443z"/>
		<path display="none" fill="#FFFFFF" d="M20.458,165.945c-3.225-3.146-3.145-6.512,0-9.132
			C20.458,160.256,20.458,163.101,20.458,165.945z"/>
		<path display="none" fill="#FFFFFF" d="M417.52,72.983c1.291,1.901,2.488,2.904,2.336,3.62c-0.227,1.062-1.268,2.169-2.26,2.726
			c-0.346,0.193-2.295-1.246-2.252-1.849C415.432,76.284,416.395,75.151,417.52,72.983z"/>
		<path display="none" fill="#FFFFFF" d="M411.909,168.819c-1.086,1.352-1.756,2.185-2.426,3.017
			c-0.822-1.126-2.059-2.168-2.314-3.411c-0.158-0.768,1.176-1.843,1.84-2.78C409.875,166.593,410.745,167.542,411.909,168.819z"/>
		<path display="none" fill="#FFFFFF" d="M503.913,14.967c1.58-1.995,2.695-3.403,3.811-4.811c0.545,0.887,1.527,1.76,1.555,2.662
			C509.358,15.459,507.815,16.144,503.913,14.967z"/>
		<path display="none" fill="#FFFFFF" d="M536.965,9.925c-1.482,1.81-2.627,3.207-3.77,4.604c-0.619-0.698-1.852-1.51-1.746-2.077
			C531.833,10.355,532.604,8.269,536.965,9.925z"/>
		<path display="none" fill="#FFFFFF" d="M46.562,297.853c4.187,1.439,4.693,3.906,4.241,7.148
			C46.913,304.118,47.161,301.186,46.562,297.853z"/>
		<path display="none" fill="#FFFFFF" d="M442.592,17.278c-0.498-0.866-1.59-1.964-1.363-2.55c0.438-1.13,1.621-1.971,2.494-2.932
			c0.617,0.724,1.771,1.482,1.729,2.165c-0.074,1.143-0.91,2.237-1.426,3.353C443.547,17.302,443.069,17.29,442.592,17.278z"/>
		<path display="none" fill="#FFFFFF" d="M124.785,166.651c-1.269,1.315-2.146,2.225-3.023,3.133
			c-0.511-0.785-1.543-1.665-1.423-2.338c0.251-1.397,1.114-2.687,1.725-4.02C122.821,164.325,123.579,165.222,124.785,166.651z"/>
		<path display="none" fill="#FFFFFF" d="M393.674,162.802c-4.355,0.321-4.656-1.737-4.115-4.063
			c0.156-0.67,1.191-1.135,1.824-1.691C392.145,158.965,392.911,160.884,393.674,162.802z"/>
		<path display="none" fill="#FFFFFF" d="M487.78,181.709c-0.063,1.336,0.057,2.716-0.258,3.989
			c-0.189,0.77-1.053,1.372-1.611,2.052c-0.672-0.887-2.059-1.985-1.869-2.619c0.445-1.514,1.633-2.809,2.52-4.191
			C486.969,181.198,487.375,181.454,487.78,181.709z"/>
		<path display="none" fill="#FFFFFF" d="M458.838,14.135c1.557-1.09,2.496-1.999,3.617-2.376c0.324-0.109,1.811,1.687,1.654,1.949
			c-0.695,1.168-1.793,2.099-2.744,3.114C460.733,16.15,460.1,15.476,458.838,14.135z"/>
		<path display="none" fill="#FFFFFF" d="M419.122,14.475c-1.992,1.242-3,2.124-4.162,2.444c-0.354,0.098-1.773-1.643-1.594-2.043
			c0.5-1.119,1.463-2.173,2.51-2.82C416.178,11.87,417.385,13.147,419.122,14.475z"/>
		<path display="none" fill="#FFFFFF" d="M382.54,152.038c3.734,1.525,2.592,4.154,2.266,6.589
			C381.075,158.548,380.584,157.232,382.54,152.038z"/>
		<path display="none" fill="#FFFFFF" d="M427.852,14.144c-1.555,1.337-2.385,2.545-3.408,2.744
			c-0.604,0.116-2.258-1.536-2.131-2.103c0.236-1.07,1.264-2.252,2.273-2.739C425.065,11.815,426.264,13.079,427.852,14.144z"/>
		<path display="none" fill="#FFFFFF" d="M486.571,14.916c1.004-1.381,2.006-2.761,3.01-4.143c0.635,0.858,1.766,1.692,1.811,2.581
			C491.524,15.967,489.749,16.263,486.571,14.916z"/>
		<path display="none" fill="#FFFFFF" d="M437.418,13.789c-1.559,1.528-2.52,2.474-3.482,3.419
			c-0.658-0.711-1.969-1.586-1.842-2.102c0.281-1.119,1.145-2.261,2.092-2.953C434.524,11.907,435.79,12.931,437.418,13.789z"/>
		<path display="none" fill="#FFFFFF" d="M527.834,9.853c-1.043,1.912-1.852,3.397-2.66,4.884c-0.693-0.489-1.967-0.963-1.98-1.473
			C523.129,11.082,523.883,9.347,527.834,9.853z"/>
		<path display="none" fill="#FFFFFF" d="M480.641,9.925c0.99,1.863,1.873,2.818,1.664,3.271c-0.518,1.131-1.531,2.032-2.348,3.025
			c-0.59-0.606-1.768-1.361-1.658-1.793C478.606,13.206,479.44,12.115,480.641,9.925z"/>
		<path display="none" fill="#FFFFFF" d="M438.915,76.769c-1.43,1.137-2.256,2.139-3.283,2.437c-0.42,0.122-1.963-1.544-1.811-1.944
			c0.41-1.072,1.361-2.04,2.332-2.711C436.368,74.401,437.547,75.646,438.915,76.769z"/>
		<path display="none" fill="#FFFFFF" d="M447.706,76.371c-1.391,1.338-2.141,2.479-3.168,2.848
			c-0.428,0.153-2.172-1.515-2.043-2.051c0.254-1.056,1.264-2.11,2.24-2.713C445.069,74.247,446.237,75.39,447.706,76.371z"/>
		<path display="none" fill="#FFFFFF" d="M488.512,71.66c1.012,1.817,1.984,2.798,1.785,3.374c-0.373,1.082-1.422,1.932-2.189,2.878
			c-0.65-0.721-1.889-1.504-1.818-2.146C486.409,74.676,487.352,73.677,488.512,71.66z"/>
		<path display="none" fill="#FFFFFF" d="M511.149,140.997c0.285-2.539,0.572-5.078,0.861-7.616
			c0.438,0.026,0.875,0.052,1.313,0.078c2.105,2.601-0.238,5.088-0.393,7.631C512.338,141.058,511.743,141.028,511.149,140.997z"/>
		<path display="none" fill="#FFFFFF" d="M395.229,15.186c1.262-0.882,2.217-1.549,3.174-2.217c0.48,0.813,1.553,1.896,1.328,2.382
			c-0.52,1.122-1.664,1.954-2.557,2.904C396.651,17.428,396.127,16.6,395.229,15.186z"/>
		<path display="none" fill="#FFFFFF" d="M518.879,12.007c-1.383,1.43-2.307,2.384-3.229,3.338c-0.541-0.645-1.67-1.548-1.52-1.89
			c0.527-1.205,1.494-2.22,2.297-3.306C517.073,10.64,517.719,11.128,518.879,12.007z"/>
		<path display="none" fill="#FFFFFF" d="M375.04,154.373c-0.074-1.86-0.168-3.721-0.137-5.579c0-0.064,1.816-0.207,1.828-0.146
			c0.316,1.827,0.516,3.675,0.73,5.52C376.655,154.236,375.846,154.305,375.04,154.373z"/>
		<path display="none" fill="#FFFFFF" d="M554.063,10.132c-1.643,1.583-2.695,2.598-3.75,3.613c-0.533-0.688-1.658-1.633-1.49-2.017
			c0.52-1.197,1.439-2.278,2.422-3.168C551.434,8.39,552.598,9.294,554.063,10.132z"/>
		<path display="none" fill="#FFFFFF" d="M451.891,17.343c-0.373-0.835-1.215-1.816-1.012-2.474c0.33-1.068,1.346-1.924,2.07-2.869
			c0.561,0.75,1.623,1.538,1.568,2.241c-0.082,1.083-0.93,2.106-1.449,3.156C452.676,17.379,452.284,17.361,451.891,17.343z"/>
		<path display="none" fill="#FFFFFF" d="M473.952,13.606c-1.385,1.387-2.252,2.256-3.121,3.125
			c-0.617-0.745-1.889-1.744-1.719-2.186c0.41-1.066,1.418-1.976,2.379-2.69C471.68,11.712,472.725,12.713,473.952,13.606z"/>
		<path display="none" fill="#FFFFFF" d="M409.055,15.608c-1.359,0.961-2.311,1.634-3.264,2.307
			c-0.447-0.845-1.438-1.881-1.223-2.491c0.373-1.052,1.496-1.839,2.303-2.737C407.45,13.458,408.028,14.232,409.055,15.608z"/>
		<path display="none" fill="#FFFFFF" d="M475.915,275.26c0.951-1.966,1.902-3.932,2.852-5.896c0.418,0.194,0.834,0.392,1.25,0.588
			c0.143,2.494,0.053,4.886-2.605,6.161C476.911,275.829,476.413,275.544,475.915,275.26z"/>
		<path display="none" fill="#FFFFFF" d="M445.075,187.09c0.836-1.393,1.672-2.784,2.508-4.176c0.707,0.568,2.09,1.527,2.02,1.647
			c-0.779,1.353-1.783,2.572-2.727,3.829C446.274,187.958,445.674,187.524,445.075,187.09z"/>
		<path display="none" fill="#FFFFFF" d="M505.405,78.23c-1.004-1.579-1.928-2.395-1.791-2.955c0.238-0.981,1.127-1.806,1.74-2.696
			c0.705,0.491,2.064,1.114,1.996,1.452C507.12,75.187,506.387,76.242,505.405,78.23z"/>
		<path display="none" fill="#FFFFFF" d="M495.504,14.764c1.238-1.544,2.244-2.8,3.252-4.055c0.42,0.766,1.193,1.531,1.195,2.299
			C499.958,15.026,499.208,16.452,495.504,14.764z"/>
		<path display="none" fill="#FFFFFF" d="M391.879,15.327c-0.822,1.403-1.645,2.809-2.467,4.213
			c-0.563-0.489-1.543-0.929-1.609-1.479C387.549,15.945,388.354,14.49,391.879,15.327z"/>
		<path display="none" fill="#FFFFFF" d="M379.723,20.99c0.98-2.181,1.664-3.697,2.346-5.214c0.598,0.451,1.646,0.849,1.709,1.362
			C384.012,19.092,383.557,20.791,379.723,20.99z"/>
		<path display="none" fill="#FFFFFF" d="M482.18,74.406c-0.791,1.188-1.582,2.375-2.375,3.563
			c-0.594-0.469-1.768-1.182-1.689-1.366c0.523-1.242,1.314-2.37,2.018-3.536C480.815,73.511,481.499,73.958,482.18,74.406z"/>
		<path display="none" fill="#FFFFFF" d="M426.672,80.478c-0.803-1.837-1.592-2.779-1.383-3.361
			c0.342-0.949,1.338-1.663,2.057-2.477c0.412,0.778,1.184,1.575,1.143,2.328C428.438,77.83,427.668,78.651,426.672,80.478z"/>
		<path display="none" fill="#FFFFFF" d="M544.891,10.147c-1.047,1.226-2.092,2.45-3.141,3.677
			c-0.434-0.625-1.375-1.513-1.211-1.828c0.637-1.231,1.623-2.281,2.479-3.398C543.643,9.113,544.268,9.629,544.891,10.147z"/>
		<path display="none" fill="#FFFFFF" d="M369.918,143.826c0,2.066,0,4.134,0,6.201c-0.453,0.005-0.906,0.01-1.357,0.016
			c0-2.067,0-4.134,0-6.2C369.012,143.837,369.465,143.832,369.918,143.826z"/>
		<path display="none" fill="#FFFFFF" d="M516.069,72.453c-1.029,1.676-1.807,2.943-2.584,4.21c-0.58-0.619-1.613-1.206-1.66-1.862
			C511.668,72.555,512.942,71.807,516.069,72.453z"/>
		<path display="none" fill="#FFFFFF" d="M14.061,173.542c-0.238-2.551-0.477-5.104-0.715-7.654
			c0.491-0.049,0.981-0.099,1.473-0.146c0.287,2.536,0.574,5.074,0.861,7.611C15.14,173.416,14.601,173.478,14.061,173.542z"/>
		<path display="none" fill="#FFFFFF" d="M520.518,75.403c-0.479-2.473-0.238-4.341,4.158-3.779
			c-1.268,1.945-2.121,3.259-2.977,4.571C521.305,75.932,520.911,75.667,520.518,75.403z"/>
	</g>
</g>
<g>
	<path fill="#CC473C" d="M314.184,247.628l10.252,16.135l10.254-19.232l16.627-2.513v54.703l-16.561,2.502v-31.957L324.1,285.013
		l-9.982-14.558v31.887l-16.594,2.507v-54.703L314.184,247.628z"/>
	<path fill="#CC473C" d="M469.397,228.745l7.498-23.254l15.754-6.532l-11.344,32.055l11.344,22.648l-15.754,6.531l-7.498-17.034
		v20.145l-15.502,6.428v-54.703l15.502-6.428V228.745z"/>
</g>
<g>
	<path fill="#CC473C" d="M427.2,321.359l3.303,10.221l1.201-0.389c0.801-0.259,1.422-0.283,1.865-0.075
		c0.443,0.207,0.748,0.567,0.914,1.08c0.162,0.503,0.125,0.968-0.113,1.396s-0.758,0.771-1.561,1.029l-4.363,1.409
		c-0.803,0.26-1.424,0.284-1.867,0.077c-0.443-0.208-0.748-0.567-0.912-1.081c-0.162-0.502-0.127-0.966,0.105-1.393
		c0.23-0.426,0.699-0.752,1.402-0.979l-4.334-13.414c-0.602,0.133-1.102,0.092-1.5-0.125s-0.674-0.559-0.826-1.026
		c-0.164-0.513-0.129-0.983,0.109-1.411s0.758-0.771,1.559-1.03l3.656-1.163l7.861,8.858l1.105-11.774l3.689-1.173
		c0.801-0.259,1.422-0.287,1.863-0.085s0.746,0.561,0.91,1.072c0.152,0.469,0.127,0.908-0.074,1.318
		c-0.203,0.409-0.58,0.734-1.137,0.977l4.334,13.415c0.703-0.228,1.273-0.233,1.715-0.019c0.439,0.215,0.74,0.572,0.902,1.074
		s0.123,0.968-0.113,1.396c-0.238,0.428-0.758,0.771-1.559,1.029l-4.383,1.415c-0.789,0.257-1.406,0.279-1.85,0.071
		s-0.748-0.566-0.914-1.081c-0.162-0.502-0.123-0.967,0.113-1.395c0.238-0.428,0.752-0.771,1.543-1.024l1.217-0.394l-3.303-10.221
		l-0.959,10.063l-2.889,0.934L427.2,321.359z"/>
	<path fill="#CC473C" d="M462.68,312.74c1.131,2.991,1.152,5.832,0.061,8.52c-1.09,2.688-2.852,4.49-5.273,5.407
		c-2.18,0.825-4.461,0.742-6.842-0.248c-2.945-1.229-5.035-3.478-6.271-6.742c-1.234-3.266-1.158-6.34,0.23-9.222
		c1.127-2.318,2.781-3.892,4.961-4.716c2.424-0.918,4.938-0.73,7.533,0.56C459.676,307.59,461.543,309.737,462.68,312.74z
		 M459.411,313.977c-0.777-2.049-2.02-3.518-3.73-4.404c-1.709-0.888-3.33-1.042-4.859-0.464c-1.521,0.575-2.627,1.766-3.318,3.567
		s-0.65,3.724,0.121,5.763c0.77,2.038,2.012,3.502,3.721,4.391c1.711,0.888,3.324,1.044,4.848,0.468
		c1.529-0.579,2.643-1.765,3.34-3.557C460.225,317.948,460.186,316.027,459.411,313.977z"/>
	<path fill="#CC473C" d="M475.338,313.011l-0.533-13.426l-0.729,0.332c-0.768,0.348-1.383,0.442-1.846,0.287
		c-0.465-0.156-0.809-0.479-1.031-0.971c-0.223-0.49-0.24-0.963-0.053-1.415c0.188-0.451,0.664-0.852,1.432-1.199l4.277-1.924
		c0.766-0.348,1.381-0.445,1.842-0.295c0.463,0.15,0.805,0.472,1.025,0.962c0.268,0.588,0.23,1.164-0.111,1.73
		c-0.16,0.279-0.607,0.586-1.344,0.919l0.779,19.086l-3.059,1.39l-13.84-13.155c-0.746,0.338-1.275,0.476-1.592,0.413
		c-0.646-0.104-1.105-0.456-1.379-1.055c-0.223-0.49-0.238-0.963-0.051-1.415c0.188-0.451,0.664-0.852,1.43-1.198l4.311-1.938
		c0.756-0.343,1.365-0.438,1.826-0.289c0.461,0.151,0.805,0.472,1.025,0.963c0.223,0.491,0.242,0.961,0.061,1.411
		c-0.184,0.449-0.656,0.85-1.422,1.196l-0.746,0.338L475.338,313.011z"/>
	<path fill="#CC473C" d="M490.151,291.48l6.977,12.251l3.066-1.746c0.73-0.417,1.336-0.567,1.813-0.454
		c0.477,0.112,0.848,0.402,1.113,0.871c0.262,0.458,0.318,0.922,0.174,1.39c-0.146,0.467-0.586,0.909-1.316,1.325l-9.174,5.224
		c-0.73,0.416-1.334,0.567-1.811,0.454c-0.479-0.112-0.85-0.403-1.115-0.872c-0.262-0.458-0.318-0.921-0.172-1.389
		c0.145-0.468,0.584-0.909,1.314-1.325l3.066-1.747l-6.975-12.251l-3.068,1.747c-0.729,0.416-1.334,0.566-1.811,0.455
		c-0.477-0.113-0.85-0.404-1.115-0.873c-0.268-0.468-0.326-0.938-0.182-1.403c0.146-0.468,0.584-0.909,1.316-1.326l9.182-5.207
		c0.73-0.417,1.334-0.569,1.809-0.463c0.473,0.108,0.844,0.396,1.109,0.864c0.268,0.469,0.326,0.937,0.182,1.404
		c-0.146,0.468-0.584,0.908-1.316,1.324L490.151,291.48z"/>
	<path fill="#CC473C" d="M508.364,290.154l3.275,4.153l7.002-5.524l-1.209-1.532c-0.535-0.682-0.793-1.268-0.766-1.757
		c0.025-0.49,0.242-0.897,0.654-1.223c0.4-0.315,0.844-0.431,1.326-0.342s0.992,0.474,1.529,1.154l3.441,4.36L510.7,299.639
		c-0.66,0.521-1.234,0.762-1.723,0.722c-0.486-0.04-0.898-0.271-1.232-0.694c-0.326-0.414-0.451-0.864-0.371-1.354
		c0.078-0.486,0.443-0.987,1.094-1.502l0.43-0.339l-8.732-11.065l-0.428,0.338c-0.662,0.521-1.236,0.762-1.725,0.722
		c-0.486-0.04-0.898-0.272-1.232-0.695s-0.463-0.877-0.391-1.359c0.074-0.484,0.441-0.987,1.104-1.509l12.328-9.705l3.396,4.305
		c0.529,0.672,0.783,1.251,0.762,1.738c-0.02,0.486-0.236,0.893-0.646,1.216c-0.41,0.324-0.855,0.443-1.334,0.358
		c-0.48-0.084-0.988-0.467-1.525-1.146l-1.166-1.478l-6.396,5.051l3.223,4.085l2.41-1.901c-0.582-0.736-0.889-1.263-0.922-1.58
		c-0.078-0.669,0.137-1.204,0.645-1.605c0.402-0.316,0.846-0.432,1.328-0.343c0.482,0.09,0.992,0.476,1.529,1.155l2.57,3.257
		c0.486,0.616,0.74,1.086,0.766,1.41c0.057,0.658-0.158,1.177-0.639,1.558c-0.51,0.401-1.08,0.486-1.713,0.254
		c-0.301-0.105-0.744-0.531-1.332-1.276L508.364,290.154z"/>
	<path fill="#CC473C" d="M534.381,272.854c0.574,0.363,0.93,0.864,1.066,1.503c0.135,0.64-0.016,1.304-0.453,1.995
		s-0.975,1.111-1.609,1.261s-1.24,0.042-1.814-0.32c-0.572-0.363-0.93-0.864-1.066-1.503c-0.135-0.64,0.016-1.305,0.453-1.995
		c0.436-0.691,0.975-1.111,1.609-1.261C533.202,272.383,533.807,272.491,534.381,272.854z"/>
</g>
<g>
	<path fill="#CC473C" d="M160.502,254.989l16.732,1.288l-4.201,54.541l-16.731-1.287l1.547-20.086l-9.641,19.463l-17.004-1.311
		l14.343-26.328l-10.143-28.214l17.004,1.311l6.547,20.708L160.502,254.989z"/>
</g>
</svg>
