<?xml version="1.0" encoding="utf-8"?>
<!-- Generator: Adobe Illustrator 16.0.0, SVG Export Plug-In . SVG Version: 6.00 Build 0)  -->
<!DOCTYPE svg PUBLIC "-//W3C//DTD SVG 1.1//EN" "http://www.w3.org/Graphics/SVG/1.1/DTD/svg11.dtd">
<svg version="1.1" id="Calque_1" xmlns="http://www.w3.org/2000/svg" xmlns:xlink="http://www.w3.org/1999/xlink" x="0px" y="0px"
	 width="558.667px" height="59.329px" viewBox="0 0 558.667 59.329" enable-background="new 0 0 558.667 59.329"
	 xml:space="preserve">
<g>
	<g>
		<path fill="#CC473C" d="M4.462,33.171c-0.748-8.047,2.689-15.336,8.39-19.968c2.223-1.807,5.545-0.26,5.545,2.596l0,0
			c0,1.049-0.498,2.014-1.308,2.669c-4.039,3.292-6.469,8.483-5.877,14.215c0.768,7.466,6.749,13.509,14.204,14.34
			c9.73,1.09,17.996-6.531,17.996-16.042c0-5.046-2.336-9.563-5.981-12.522c-0.81-0.654-1.298-1.62-1.298-2.659l0,0
			c0-2.825,3.271-4.423,5.472-2.658c5.213,4.205,8.557,10.632,8.557,17.839c0,13.177-11.193,23.799-24.578,22.834
			C14.513,53.035,5.49,44.219,4.462,33.171z M27.254,3.007c-1.87,0-3.375,1.516-3.375,3.374v15.545c0,1.869,1.516,3.374,3.375,3.374
			c1.858,0,3.375-1.516,3.375-3.374V6.381C30.629,4.523,29.123,3.007,27.254,3.007z"/>
	</g>
</g>
<g>
	<g>
		<path fill="#CC473B" d="M83.297,4.584c-1.6-0.66-3.293-0.293-4.515,0.935L59.971,24.497c-2.207,2.218-2.169,5.801,0.037,8.02
			l18.903,18.98c1.222,1.226,2.778,1.595,4.379,0.934c1.598-0.66,2.36-2.22,2.36-3.949V8.533C85.65,6.803,84.898,5.242,83.297,4.584
			z"/>
		<path fill="#CC473B" d="M116.034,4.438c-1.599-0.66-3.363-0.291-4.583,0.935l-18.849,18.98c-2.206,2.217-2.187,5.799,0.02,8.019
			l18.895,18.978c1.223,1.227,2.915,1.595,4.517,0.936c1.598-0.662,2.496-2.219,2.496-3.951V8.39
			C118.527,6.658,117.634,5.099,116.034,4.438z"/>
	</g>
</g>
<g>
	<path fill="#CC473B" d="M141.505,5.446c-4.348-2.494-7.873-0.451-7.873,4.56v36.977c0,5.016,3.525,7.056,7.873,4.565l32.319-18.535
		c4.35-2.495,4.35-6.537,0-9.032L141.505,5.446z"/>
</g>
<g>
	<path fill="#CC473B" d="M204.418,45.966c0,3.669-2.975,6.644-6.643,6.644l0,0c-3.669,0-6.644-2.975-6.644-6.644V11.557
		c0-3.669,2.975-6.643,6.644-6.643l0,0c3.668,0,6.643,2.974,6.643,6.643V45.966z"/>
	<path fill="#CC473B" d="M229.351,45.966c0,3.669-2.975,6.644-6.644,6.644l0,0c-3.669,0-6.643-2.975-6.643-6.644V11.557
		c0.001-3.669,2.975-6.643,6.643-6.643l0,0c3.668,0,6.644,2.974,6.644,6.643V45.966z"/>
</g>
<g>
	<g>
		<path fill="#CC473B" d="M337.893,8.705v41.182c0,1.783,0.787,3.391,2.434,4.071c1.651,0.682,3.255,0.301,4.516-0.962
			l19.485-19.567c2.275-2.288,2.313-5.981,0.038-8.268L344.974,5.598c-1.26-1.266-3.005-1.645-4.654-0.964
			C338.668,5.312,337.894,6.921,337.893,8.705z"/>
		<path fill="#CC473B" d="M304,8.557v41.179c0,1.785,0.925,3.39,2.573,4.073c1.65,0.68,3.395,0.3,4.655-0.964l19.478-19.563
			c2.275-2.289,2.295-5.981,0.021-8.267L311.296,5.448c-1.258-1.264-3.076-1.645-4.725-0.964C304.922,5.164,304.002,6.772,304,8.557
			z"/>
	</g>
</g>
<path fill="#CC473B" d="M285.987,3.244h-40.505c-2.79,0-5.063,2.274-5.063,5.063v40.504c0,2.79,2.273,5.064,5.063,5.064h40.505
	c2.789,0,5.061-2.274,5.061-5.064V8.308C291.047,5.518,288.776,3.244,285.987,3.244z"/>
<path fill="#CC473B" d="M411.804,3.382c-0.655-0.318-1.417-0.228-1.979,0.225l-18.2,14.558h-8.693c-2.065,0-3.742,1.676-3.742,3.742
	v14.966c0,2.065,1.677,3.742,3.742,3.742h8.693l18.195,14.558c0.342,0.27,0.756,0.408,1.172,0.408c0.272,0,0.549-0.064,0.812-0.187
	c0.647-0.311,1.059-0.965,1.059-1.684V5.07C412.863,4.352,412.452,3.697,411.804,3.382z"/>
<text transform="matrix(1 0 0 1 421.2095 35.8384)" fill="#CC473B" font-family="'ComicSansMS-Bold'" font-size="32.6178">-</text>
<path fill="#CC473B" d="M481.185,4.215c-0.648-0.314-1.4-0.226-1.957,0.221l-17.983,14.388h-8.593c-2.042,0-3.698,1.657-3.698,3.697
	v14.791c0,2.041,1.656,3.697,3.698,3.697h8.593l17.98,14.387c0.336,0.266,0.746,0.403,1.157,0.403c0.27,0,0.543-0.063,0.803-0.185
	c0.641-0.306,1.046-0.954,1.046-1.664V5.883C482.231,5.173,481.826,4.525,481.185,4.215z"/>
<text transform="matrix(1 0 0 1 485.3784 41.3555)" fill="#CC473B" font-family="'ComicSansMS-Bold'" font-size="35.3833">+</text>
<g>
	<path fill="#CC473B" d="M532.522,53.895c12.284,0,22.277-11.019,22.277-24.562c0-6.34-2.23-12.404-6.17-16.955
		c0,0,0.574-1.422,1.285-3.178c0.709-1.754-0.312-2.993-2.279-2.767l-11.528,1.332c-1.968,0.226-2.623,1.841-1.46,3.607l6.81,10.342
		c1.163,1.766,2.599,1.978,3.207,0.472l1.1-2.724c1.774,2.893,2.766,6.316,2.766,9.871c0,9.732-7.182,17.648-16.007,17.648
		c-8.827,0-16.01-7.916-16.01-17.648c0-3.066,0.723-6.084,2.093-8.727c0.857-1.658,0.334-3.769-1.17-4.715
		c-1.504-0.947-3.418-0.37-4.277,1.29c-1.906,3.685-2.915,7.887-2.915,12.152C510.243,42.876,520.237,53.895,532.522,53.895z"/>
</g>
</svg>
