<?xml version="1.0" encoding="utf-8"?>
<!-- Generator: Adobe Illustrator 16.0.0, SVG Export Plug-In . SVG Version: 6.00 Build 0)  -->
<!DOCTYPE svg PUBLIC "-//W3C//DTD SVG 1.1//EN" "http://www.w3.org/Graphics/SVG/1.1/DTD/svg11.dtd">
<svg version="1.1" id="Calque_1" xmlns="http://www.w3.org/2000/svg" xmlns:xlink="http://www.w3.org/1999/xlink" x="0px" y="0px"
	 width="114.118px" height="110.588px" viewBox="0 0 114.118 110.588" enable-background="new 0 0 114.118 110.588"
	 xml:space="preserve">
<g>
	<path fill="#CC483B" d="M58.41,105.363c25.064,0,45.454-22.484,45.454-50.117c0-12.937-4.548-25.31-12.59-34.596
		c0,0,1.172-2.901,2.622-6.484c1.446-3.58-0.638-6.107-4.65-5.646l-23.521,2.718c-4.018,0.461-5.353,3.756-2.981,7.36L76.64,39.699
		c2.376,3.604,5.305,4.036,6.544,0.964l2.244-5.559c3.623,5.903,5.647,12.888,5.647,20.142c0,19.857-14.658,36.01-32.665,36.01
		c-18.01,0-32.667-16.152-32.667-36.01c0-6.256,1.475-12.414,4.268-17.808c1.75-3.382,0.682-7.69-2.387-9.62
		c-3.069-1.933-6.974-0.755-8.724,2.632c-3.89,7.519-5.95,16.092-5.95,24.795C12.95,82.879,33.343,105.363,58.41,105.363z"/>
</g>
</svg>
